<?xml version="1.0" encoding="iso-8859-1"?>
<!-- Generator: Adobe Illustrator 24.0.3, SVG Export Plug-In . SVG Version: 6.00 Build 0)  -->
<svg version="1.1"
	 id="svg4544" xmlns:cc="http://creativecommons.org/ns#" xmlns:dc="http://purl.org/dc/elements/1.1/" xmlns:rdf="http://www.w3.org/1999/02/22-rdf-syntax-ns#" xmlns:svg="http://www.w3.org/2000/svg"
	 xmlns="http://www.w3.org/2000/svg" xmlns:xlink="http://www.w3.org/1999/xlink" x="0px" y="0px" viewBox="0 0 185 188"
	 style="enable-background:new 0 0 185 188;" xml:space="preserve">
<g>
	<path id="svg_3" style="fill:none;" d="M0,0"/>
	<path id="svg_5" style="fill:none;" d="M0,0"/>
	<rect id="svg_6" x="34.766" y="3.738" style="fill:none;" width="14.586" height="42.969"/>
	<rect id="svg_7" x="129.348" y="6.527" style="fill:none;" width="54.401" height="58.343"/>
	<g style="enable-background:new    ;">
		<path style="fill:#585454;" d="M137.83,14.712c0,0.94-0.284,1.663-0.853,2.167c-0.567,0.504-1.401,0.756-2.497,0.756
			c-0.958,0-1.828-0.174-2.611-0.523l0.41-0.952c0.666,0.286,1.4,0.429,2.201,0.429c0.693,0,1.195-0.159,1.506-0.476
			c0.312-0.317,0.467-0.813,0.467-1.486V7.181h1.377V14.712z"/>
		<path style="fill:#585454;" d="M149.645,17.438h-1.303c-0.105-0.305-0.158-0.712-0.158-1.221c-0.745,0.945-1.758,1.417-3.04,1.417
			c-0.649,0-1.222-0.2-1.718-0.6c-0.495-0.4-0.742-0.915-0.742-1.545c0-0.373,0.086-0.703,0.26-0.988
			c0.174-0.286,0.428-0.527,0.764-0.724s0.745-0.351,1.227-0.465c0.481-0.114,1.053-0.193,1.713-0.236l1.469-0.102v-0.363
			c0-1.299-0.699-1.948-2.099-1.948c-0.331,0-0.749,0.062-1.255,0.186c-0.507,0.124-0.942,0.27-1.307,0.44l-0.344-0.814
			c1.192-0.528,2.301-0.792,3.325-0.792c1.993,0,2.989,0.914,2.989,2.741v3.256C149.426,16.338,149.498,16.924,149.645,17.438z
			 M148.115,15.192v-1.374c-1.181,0.092-1.99,0.178-2.43,0.258c-0.439,0.08-0.82,0.229-1.143,0.447
			c-0.322,0.218-0.482,0.514-0.482,0.887c0,0.339,0.137,0.613,0.411,0.822s0.624,0.312,1.05,0.312c0.465,0,0.926-0.12,1.385-0.36
			C147.365,15.944,147.769,15.613,148.115,15.192z"/>
		<path style="fill:#585454;" d="M154.312,10.844c0.291-0.349,0.684-0.63,1.18-0.843c0.495-0.213,1.018-0.32,1.566-0.32
			c1.007,0,1.798,0.36,2.371,1.08c0.574,0.72,0.861,1.656,0.861,2.81c0,1.163-0.301,2.131-0.902,2.904
			c-0.603,0.773-1.412,1.16-2.432,1.16c-0.543,0-1.051-0.118-1.523-0.353s-0.848-0.546-1.121-0.934v4.085h-1.311V9.863h1.311V10.844
			z M154.312,11.971v3.147c0.246,0.426,0.579,0.783,0.999,1.068c0.42,0.286,0.854,0.429,1.302,0.429
			c0.705,0,1.266-0.286,1.684-0.858c0.416-0.572,0.625-1.282,0.625-2.13c0-0.872-0.199-1.584-0.596-2.137
			c-0.398-0.552-0.952-0.829-1.662-0.829C155.74,10.663,154.956,11.099,154.312,11.971z"/>
		<path style="fill:#585454;" d="M170.283,17.438h-1.303c-0.105-0.305-0.158-0.712-0.158-1.221c-0.745,0.945-1.758,1.417-3.04,1.417
			c-0.649,0-1.222-0.2-1.718-0.6c-0.495-0.4-0.742-0.915-0.742-1.545c0-0.373,0.086-0.703,0.26-0.988
			c0.174-0.286,0.428-0.527,0.764-0.724s0.745-0.351,1.227-0.465c0.481-0.114,1.053-0.193,1.713-0.236l1.469-0.102v-0.363
			c0-1.299-0.699-1.948-2.099-1.948c-0.331,0-0.749,0.062-1.255,0.186c-0.507,0.124-0.942,0.27-1.307,0.44l-0.344-0.814
			c1.192-0.528,2.301-0.792,3.325-0.792c1.993,0,2.989,0.914,2.989,2.741v3.256C170.064,16.338,170.137,16.924,170.283,17.438z
			 M168.754,15.192v-1.374c-1.181,0.092-1.99,0.178-2.43,0.258c-0.439,0.08-0.82,0.229-1.143,0.447
			c-0.322,0.218-0.482,0.514-0.482,0.887c0,0.339,0.137,0.613,0.411,0.822s0.624,0.312,1.05,0.312c0.465,0,0.926-0.12,1.385-0.36
			C168.004,15.944,168.407,15.613,168.754,15.192z"/>
		<path style="fill:#585454;" d="M180.384,17.438h-1.31v-4.856c0-0.673-0.125-1.162-0.374-1.464s-0.64-0.455-1.171-0.455
			c-0.801,0-1.66,0.432-2.578,1.294v5.481h-1.311V9.863h1.311v1.112c0.94-0.862,1.932-1.294,2.973-1.294
			c1.64,0,2.46,0.858,2.46,2.573V17.438z"/>
	</g>
	<g style="enable-background:new    ;">
		<path style="fill:none;stroke:#656565;stroke-width:0.5374;stroke-miterlimit:10;" d="M137.83,14.712
			c0,0.94-0.284,1.663-0.853,2.167c-0.567,0.504-1.401,0.756-2.497,0.756c-0.958,0-1.828-0.174-2.611-0.523l0.41-0.952
			c0.666,0.286,1.4,0.429,2.201,0.429c0.693,0,1.195-0.159,1.506-0.476c0.312-0.317,0.467-0.813,0.467-1.486V7.181h1.377V14.712z"/>
		<path style="fill:none;stroke:#656565;stroke-width:0.5374;stroke-miterlimit:10;" d="M149.645,17.438h-1.303
			c-0.105-0.305-0.158-0.712-0.158-1.221c-0.745,0.945-1.758,1.417-3.04,1.417c-0.649,0-1.222-0.2-1.718-0.6
			c-0.495-0.4-0.742-0.915-0.742-1.545c0-0.373,0.086-0.703,0.26-0.988c0.174-0.286,0.428-0.527,0.764-0.724
			s0.745-0.351,1.227-0.465c0.481-0.114,1.053-0.193,1.713-0.236l1.469-0.102v-0.363c0-1.299-0.699-1.948-2.099-1.948
			c-0.331,0-0.749,0.062-1.255,0.186c-0.507,0.124-0.942,0.27-1.307,0.44l-0.344-0.814c1.192-0.528,2.301-0.792,3.325-0.792
			c1.993,0,2.989,0.914,2.989,2.741v3.256C149.426,16.338,149.498,16.924,149.645,17.438z M148.115,15.192v-1.374
			c-1.181,0.092-1.99,0.178-2.43,0.258c-0.439,0.08-0.82,0.229-1.143,0.447c-0.322,0.218-0.482,0.514-0.482,0.887
			c0,0.339,0.137,0.613,0.411,0.822s0.624,0.312,1.05,0.312c0.465,0,0.926-0.12,1.385-0.36
			C147.365,15.944,147.769,15.613,148.115,15.192z"/>
		<path style="fill:none;stroke:#656565;stroke-width:0.5374;stroke-miterlimit:10;" d="M154.312,10.844
			c0.291-0.349,0.684-0.63,1.18-0.843c0.495-0.213,1.018-0.32,1.566-0.32c1.007,0,1.798,0.36,2.371,1.08
			c0.574,0.72,0.861,1.656,0.861,2.81c0,1.163-0.301,2.131-0.902,2.904c-0.603,0.773-1.412,1.16-2.432,1.16
			c-0.543,0-1.051-0.118-1.523-0.353s-0.848-0.546-1.121-0.934v4.085h-1.311V9.863h1.311V10.844z M154.312,11.971v3.147
			c0.246,0.426,0.579,0.783,0.999,1.068c0.42,0.286,0.854,0.429,1.302,0.429c0.705,0,1.266-0.286,1.684-0.858
			c0.416-0.572,0.625-1.282,0.625-2.13c0-0.872-0.199-1.584-0.596-2.137c-0.398-0.552-0.952-0.829-1.662-0.829
			C155.74,10.663,154.956,11.099,154.312,11.971z"/>
		<path style="fill:none;stroke:#656565;stroke-width:0.5374;stroke-miterlimit:10;" d="M170.283,17.438h-1.303
			c-0.105-0.305-0.158-0.712-0.158-1.221c-0.745,0.945-1.758,1.417-3.04,1.417c-0.649,0-1.222-0.2-1.718-0.6
			c-0.495-0.4-0.742-0.915-0.742-1.545c0-0.373,0.086-0.703,0.26-0.988c0.174-0.286,0.428-0.527,0.764-0.724
			s0.745-0.351,1.227-0.465c0.481-0.114,1.053-0.193,1.713-0.236l1.469-0.102v-0.363c0-1.299-0.699-1.948-2.099-1.948
			c-0.331,0-0.749,0.062-1.255,0.186c-0.507,0.124-0.942,0.27-1.307,0.44l-0.344-0.814c1.192-0.528,2.301-0.792,3.325-0.792
			c1.993,0,2.989,0.914,2.989,2.741v3.256C170.064,16.338,170.137,16.924,170.283,17.438z M168.754,15.192v-1.374
			c-1.181,0.092-1.99,0.178-2.43,0.258c-0.439,0.08-0.82,0.229-1.143,0.447c-0.322,0.218-0.482,0.514-0.482,0.887
			c0,0.339,0.137,0.613,0.411,0.822s0.624,0.312,1.05,0.312c0.465,0,0.926-0.12,1.385-0.36
			C168.004,15.944,168.407,15.613,168.754,15.192z"/>
		<path style="fill:none;stroke:#656565;stroke-width:0.5374;stroke-miterlimit:10;" d="M180.384,17.438h-1.31v-4.856
			c0-0.673-0.125-1.162-0.374-1.464s-0.64-0.455-1.171-0.455c-0.801,0-1.66,0.432-2.578,1.294v5.481h-1.311V9.863h1.311v1.112
			c0.94-0.862,1.932-1.294,2.973-1.294c1.64,0,2.46,0.858,2.46,2.573V17.438z"/>
	</g>
	<g style="enable-background:new    ;">
	</g>
	<g style="enable-background:new    ;">
		<path style="fill:#585454;" d="M138.988,27.931h-4.903v3.351h4.468v1.04h-4.468v4.827h-1.377V26.892h6.28V27.931z"/>
		<path style="fill:#585454;" d="M146.033,29.392c1.203,0,2.16,0.364,2.871,1.091c0.711,0.727,1.066,1.684,1.066,2.871
			c0,1.197-0.355,2.162-1.066,2.893c-0.711,0.732-1.668,1.098-2.871,1.098c-1.209,0-2.168-0.365-2.875-1.094
			c-0.709-0.729-1.062-1.695-1.062-2.896c0-1.192,0.355-2.15,1.066-2.875S144.83,29.392,146.033,29.392z M146.033,36.356
			c0.795,0,1.422-0.291,1.881-0.872s0.688-1.287,0.688-2.115c0-0.873-0.227-1.589-0.68-2.152c-0.454-0.562-1.083-0.843-1.89-0.843
			c-0.812,0-1.441,0.277-1.889,0.833c-0.448,0.555-0.672,1.275-0.672,2.163c0,0.843,0.227,1.552,0.68,2.126
			S145.232,36.356,146.033,36.356z"/>
		<path style="fill:#585454;" d="M159.879,29.777l-0.529,1.091c-0.576-0.218-1.074-0.327-1.494-0.327
			c-0.387,0-0.764,0.096-1.133,0.287c-0.37,0.191-0.71,0.465-1.021,0.821c-0.312,0.356-0.466,0.556-0.466,0.6v4.899h-1.302v-7.574
			h1.302v1.534c0.699-1.144,1.605-1.716,2.721-1.716C158.617,29.392,159.258,29.521,159.879,29.777z"/>
		<path style="fill:#585454;" d="M170.047,37.149h-1.309v-1.12c-0.941,0.868-1.932,1.301-2.973,1.301
			c-1.641,0-2.461-0.86-2.461-2.581v-5.175h1.311v4.848c0,0.645,0.117,1.126,0.353,1.443c0.235,0.318,0.632,0.477,1.192,0.477
			c0.801,0,1.659-0.432,2.578-1.294v-5.474h1.309V37.149z"/>
		<path style="fill:#585454;" d="M181.072,37.149h-1.311v-4.972c0-1.202-0.257-1.803-0.771-1.803c-0.264,0-0.553,0.208-0.869,0.622
			c-0.316,0.415-0.475,0.644-0.475,0.687v5.466h-1.302v-4.972c0-1.202-0.261-1.803-0.78-1.803c-0.258,0-0.545,0.208-0.861,0.622
			c-0.316,0.415-0.475,0.644-0.475,0.687v5.466h-1.31v-7.574h1.26v1.141c0.246-0.402,0.538-0.723,0.878-0.963
			c0.338-0.24,0.676-0.36,1.012-0.36c0.352,0,0.668,0.12,0.948,0.36c0.28,0.24,0.474,0.561,0.579,0.963
			c0.246-0.402,0.541-0.723,0.882-0.963c0.341-0.24,0.677-0.36,1.008-0.36c1.058,0,1.587,0.819,1.587,2.457V37.149z"/>
	</g>
	<g style="enable-background:new    ;">
		<path style="fill:none;stroke:#656565;stroke-width:0.5374;stroke-miterlimit:10;" d="M138.988,27.931h-4.903v3.351h4.468v1.04
			h-4.468v4.827h-1.377V26.892h6.28V27.931z"/>
		<path style="fill:none;stroke:#656565;stroke-width:0.5374;stroke-miterlimit:10;" d="M146.033,29.392
			c1.203,0,2.16,0.364,2.871,1.091c0.711,0.727,1.066,1.684,1.066,2.871c0,1.197-0.355,2.162-1.066,2.893
			c-0.711,0.732-1.668,1.098-2.871,1.098c-1.209,0-2.168-0.365-2.875-1.094c-0.709-0.729-1.062-1.695-1.062-2.896
			c0-1.192,0.355-2.15,1.066-2.875S144.83,29.392,146.033,29.392z M146.033,36.356c0.795,0,1.422-0.291,1.881-0.872
			s0.688-1.287,0.688-2.115c0-0.873-0.227-1.589-0.68-2.152c-0.454-0.562-1.083-0.843-1.89-0.843c-0.812,0-1.441,0.277-1.889,0.833
			c-0.448,0.555-0.672,1.275-0.672,2.163c0,0.843,0.227,1.552,0.68,2.126S145.232,36.356,146.033,36.356z"/>
		<path style="fill:none;stroke:#656565;stroke-width:0.5374;stroke-miterlimit:10;" d="M159.879,29.777l-0.529,1.091
			c-0.576-0.218-1.074-0.327-1.494-0.327c-0.387,0-0.764,0.096-1.133,0.287c-0.37,0.191-0.71,0.465-1.021,0.821
			c-0.312,0.356-0.466,0.556-0.466,0.6v4.899h-1.302v-7.574h1.302v1.534c0.699-1.144,1.605-1.716,2.721-1.716
			C158.617,29.392,159.258,29.521,159.879,29.777z"/>
		<path style="fill:none;stroke:#656565;stroke-width:0.5374;stroke-miterlimit:10;" d="M170.047,37.149h-1.309v-1.12
			c-0.941,0.868-1.932,1.301-2.973,1.301c-1.641,0-2.461-0.86-2.461-2.581v-5.175h1.311v4.848c0,0.645,0.117,1.126,0.353,1.443
			c0.235,0.318,0.632,0.477,1.192,0.477c0.801,0,1.659-0.432,2.578-1.294v-5.474h1.309V37.149z"/>
		<path style="fill:none;stroke:#656565;stroke-width:0.5374;stroke-miterlimit:10;" d="M181.072,37.149h-1.311v-4.972
			c0-1.202-0.257-1.803-0.771-1.803c-0.264,0-0.553,0.208-0.869,0.622c-0.316,0.415-0.475,0.644-0.475,0.687v5.466h-1.302v-4.972
			c0-1.202-0.261-1.803-0.78-1.803c-0.258,0-0.545,0.208-0.861,0.622c-0.316,0.415-0.475,0.644-0.475,0.687v5.466h-1.31v-7.574h1.26
			v1.141c0.246-0.402,0.538-0.723,0.878-0.963c0.338-0.24,0.676-0.36,1.012-0.36c0.352,0,0.668,0.12,0.948,0.36
			c0.28,0.24,0.474,0.561,0.579,0.963c0.246-0.402,0.541-0.723,0.882-0.963c0.341-0.24,0.677-0.36,1.008-0.36
			c1.058,0,1.587,0.819,1.587,2.457V37.149z"/>
	</g>
	<g style="enable-background:new    ;">
	</g>
	<g style="enable-background:new    ;">
		<path style="fill:#585454;" d="M143.805,57.253h-6.516v-0.865c1.651-1.594,2.723-2.663,3.216-3.206
			c0.493-0.542,0.894-1.112,1.2-1.708c0.309-0.596,0.463-1.19,0.463-1.781c0-0.572-0.201-1.022-0.601-1.352
			c-0.4-0.329-0.962-0.494-1.684-0.494c-0.554,0-1.299,0.148-2.233,0.443l-0.193-1.025c0.846-0.31,1.73-0.465,2.653-0.465
			c1.058,0,1.91,0.258,2.557,0.774s0.97,1.206,0.97,2.068c0,0.616-0.166,1.226-0.5,1.832c-0.332,0.606-0.76,1.187-1.279,1.745
			c-0.521,0.557-1.534,1.555-3.04,2.995h4.987V57.253z"/>
		<path style="fill:#585454;" d="M151.025,46.8c1.254,0,2.219,0.467,2.893,1.399c0.675,0.933,1.012,2.243,1.012,3.929
			c0,1.633-0.326,2.928-0.982,3.885c-0.654,0.957-1.629,1.436-2.922,1.436c-1.248,0-2.211-0.465-2.888-1.396
			c-0.678-0.931-1.017-2.239-1.017-3.925c0-1.638,0.329-2.936,0.986-3.893C148.766,47.279,149.738,46.8,151.025,46.8z
			 M151.025,56.402c0.829,0,1.443-0.34,1.844-1.021c0.4-0.681,0.6-1.765,0.6-3.253c0-1.493-0.199-2.577-0.6-3.253
			c-0.4-0.676-1.015-1.014-1.844-1.014c-0.816,0-1.427,0.347-1.83,1.04c-0.402,0.693-0.604,1.769-0.604,3.228
			c0,1.478,0.2,2.56,0.601,3.246C149.592,56.06,150.203,56.402,151.025,56.402z M150.992,51.038c0.353,0,0.65,0.105,0.895,0.316
			c0.243,0.211,0.365,0.469,0.365,0.774c0,0.315-0.123,0.585-0.369,0.811c-0.247,0.225-0.543,0.338-0.891,0.338
			c-0.342,0-0.634-0.113-0.877-0.338c-0.244-0.226-0.365-0.496-0.365-0.811c0-0.31,0.119-0.569,0.356-0.778
			S150.64,51.038,150.992,51.038z"/>
		<path style="fill:#585454;" d="M164.443,57.253h-6.516v-0.865c1.651-1.594,2.723-2.663,3.216-3.206
			c0.493-0.542,0.894-1.112,1.2-1.708c0.309-0.596,0.463-1.19,0.463-1.781c0-0.572-0.201-1.022-0.601-1.352
			c-0.4-0.329-0.962-0.494-1.684-0.494c-0.554,0-1.299,0.148-2.233,0.443l-0.193-1.025c0.846-0.31,1.73-0.465,2.653-0.465
			c1.058,0,1.91,0.258,2.557,0.774s0.97,1.206,0.97,2.068c0,0.616-0.166,1.226-0.5,1.832c-0.332,0.606-0.76,1.187-1.279,1.745
			c-0.521,0.557-1.534,1.555-3.04,2.995h4.987V57.253z"/>
		<path style="fill:#585454;" d="M171.664,46.8c1.254,0,2.219,0.467,2.893,1.399c0.675,0.933,1.012,2.243,1.012,3.929
			c0,1.633-0.326,2.928-0.982,3.885c-0.654,0.957-1.629,1.436-2.922,1.436c-1.248,0-2.211-0.465-2.888-1.396
			c-0.678-0.931-1.017-2.239-1.017-3.925c0-1.638,0.329-2.936,0.986-3.893C169.404,47.279,170.377,46.8,171.664,46.8z
			 M171.664,56.402c0.829,0,1.443-0.34,1.844-1.021c0.4-0.681,0.6-1.765,0.6-3.253c0-1.493-0.199-2.577-0.6-3.253
			c-0.4-0.676-1.015-1.014-1.844-1.014c-0.816,0-1.427,0.347-1.83,1.04c-0.402,0.693-0.604,1.769-0.604,3.228
			c0,1.478,0.2,2.56,0.601,3.246C170.23,56.06,170.842,56.402,171.664,56.402z M171.631,51.038c0.353,0,0.65,0.105,0.895,0.316
			c0.243,0.211,0.365,0.469,0.365,0.774c0,0.315-0.123,0.585-0.369,0.811c-0.247,0.225-0.543,0.338-0.891,0.338
			c-0.342,0-0.634-0.113-0.877-0.338c-0.244-0.226-0.365-0.496-0.365-0.811c0-0.31,0.119-0.569,0.356-0.778
			S171.278,51.038,171.631,51.038z"/>
	</g>
	<g style="enable-background:new    ;">
		<path style="fill:none;stroke:#656565;stroke-width:0.5374;stroke-miterlimit:10;" d="M143.805,57.253h-6.516v-0.865
			c1.651-1.594,2.723-2.663,3.216-3.206c0.493-0.542,0.894-1.112,1.2-1.708c0.309-0.596,0.463-1.19,0.463-1.781
			c0-0.572-0.201-1.022-0.601-1.352c-0.4-0.329-0.962-0.494-1.684-0.494c-0.554,0-1.299,0.148-2.233,0.443l-0.193-1.025
			c0.846-0.31,1.73-0.465,2.653-0.465c1.058,0,1.91,0.258,2.557,0.774s0.97,1.206,0.97,2.068c0,0.616-0.166,1.226-0.5,1.832
			c-0.332,0.606-0.76,1.187-1.279,1.745c-0.521,0.557-1.534,1.555-3.04,2.995h4.987V57.253z"/>
		<path style="fill:none;stroke:#656565;stroke-width:0.5374;stroke-miterlimit:10;" d="M151.025,46.8
			c1.254,0,2.219,0.467,2.893,1.399c0.675,0.933,1.012,2.243,1.012,3.929c0,1.633-0.326,2.928-0.982,3.885
			c-0.654,0.957-1.629,1.436-2.922,1.436c-1.248,0-2.211-0.465-2.888-1.396c-0.678-0.931-1.017-2.239-1.017-3.925
			c0-1.638,0.329-2.936,0.986-3.893C148.766,47.279,149.738,46.8,151.025,46.8z M151.025,56.402c0.829,0,1.443-0.34,1.844-1.021
			c0.4-0.681,0.6-1.765,0.6-3.253c0-1.493-0.199-2.577-0.6-3.253c-0.4-0.676-1.015-1.014-1.844-1.014
			c-0.816,0-1.427,0.347-1.83,1.04c-0.402,0.693-0.604,1.769-0.604,3.228c0,1.478,0.2,2.56,0.601,3.246
			C149.592,56.06,150.203,56.402,151.025,56.402z M150.992,51.038c0.353,0,0.65,0.105,0.895,0.316
			c0.243,0.211,0.365,0.469,0.365,0.774c0,0.315-0.123,0.585-0.369,0.811c-0.247,0.225-0.543,0.338-0.891,0.338
			c-0.342,0-0.634-0.113-0.877-0.338c-0.244-0.226-0.365-0.496-0.365-0.811c0-0.31,0.119-0.569,0.356-0.778
			S150.64,51.038,150.992,51.038z"/>
		<path style="fill:none;stroke:#656565;stroke-width:0.5374;stroke-miterlimit:10;" d="M164.443,57.253h-6.516v-0.865
			c1.651-1.594,2.723-2.663,3.216-3.206c0.493-0.542,0.894-1.112,1.2-1.708c0.309-0.596,0.463-1.19,0.463-1.781
			c0-0.572-0.201-1.022-0.601-1.352c-0.4-0.329-0.962-0.494-1.684-0.494c-0.554,0-1.299,0.148-2.233,0.443l-0.193-1.025
			c0.846-0.31,1.73-0.465,2.653-0.465c1.058,0,1.91,0.258,2.557,0.774s0.97,1.206,0.97,2.068c0,0.616-0.166,1.226-0.5,1.832
			c-0.332,0.606-0.76,1.187-1.279,1.745c-0.521,0.557-1.534,1.555-3.04,2.995h4.987V57.253z"/>
		<path style="fill:none;stroke:#656565;stroke-width:0.5374;stroke-miterlimit:10;" d="M171.664,46.8
			c1.254,0,2.219,0.467,2.893,1.399c0.675,0.933,1.012,2.243,1.012,3.929c0,1.633-0.326,2.928-0.982,3.885
			c-0.654,0.957-1.629,1.436-2.922,1.436c-1.248,0-2.211-0.465-2.888-1.396c-0.678-0.931-1.017-2.239-1.017-3.925
			c0-1.638,0.329-2.936,0.986-3.893C169.404,47.279,170.377,46.8,171.664,46.8z M171.664,56.402c0.829,0,1.443-0.34,1.844-1.021
			c0.4-0.681,0.6-1.765,0.6-3.253c0-1.493-0.199-2.577-0.6-3.253c-0.4-0.676-1.015-1.014-1.844-1.014
			c-0.816,0-1.427,0.347-1.83,1.04c-0.402,0.693-0.604,1.769-0.604,3.228c0,1.478,0.2,2.56,0.601,3.246
			C170.23,56.06,170.842,56.402,171.664,56.402z M171.631,51.038c0.353,0,0.65,0.105,0.895,0.316
			c0.243,0.211,0.365,0.469,0.365,0.774c0,0.315-0.123,0.585-0.369,0.811c-0.247,0.225-0.543,0.338-0.891,0.338
			c-0.342,0-0.634-0.113-0.877-0.338c-0.244-0.226-0.365-0.496-0.365-0.811c0-0.31,0.119-0.569,0.356-0.778
			S171.278,51.038,171.631,51.038z"/>
	</g>
	<g id="svg_13" transform="matrix(3.9421223,0,0,3.9421223,325.29998,-319.51576)">
		<rect id="svg_14" x="-82" y="82.2" style="fill:#E73929;" width="15" height="14.8"/>
		<rect id="svg_15" x="-65.7" y="82.2" style="fill:#E73929;" width="15" height="14.8"/>
	</g>
	<g id="svg_16" transform="scale(1.0059324,0.99410258)">
		<path id="path81" style="fill:#FFFFFF;" d="M85.663,25.704c0,1.022-0.191,1.91-0.573,2.664c-0.372,0.754-0.898,1.38-1.576,1.876
			c-0.678,0.487-1.485,0.85-2.421,1.089s-1.957,0.358-3.065,0.358c-0.984,0-1.934-0.057-2.85-0.172
			c-0.917-0.115-1.824-0.306-2.721-0.573v-3.48c0.439,0.153,0.898,0.296,1.375,0.43c0.477,0.134,0.955,0.253,1.432,0.358
			c0.487,0.095,0.969,0.172,1.447,0.229c0.477,0.057,0.941,0.086,1.389,0.086c0.668,0,1.237-0.057,1.704-0.172
			c0.468-0.115,0.85-0.272,1.146-0.473c0.296-0.201,0.511-0.439,0.645-0.716c0.134-0.277,0.201-0.582,0.201-0.917
			c0-0.458-0.134-0.84-0.401-1.146c-0.258-0.315-0.602-0.592-1.031-0.831c-0.43-0.239-0.921-0.454-1.475-0.645
			c-0.544-0.191-1.103-0.396-1.676-0.616c-0.563-0.22-1.122-0.468-1.676-0.745c-0.544-0.277-1.031-0.621-1.461-1.031
			c-0.43-0.411-0.778-0.898-1.046-1.461c-0.258-0.573-0.387-1.26-0.387-2.062c0-0.735,0.134-1.432,0.401-2.091
			c0.267-0.659,0.687-1.232,1.26-1.719c0.573-0.497,1.308-0.888,2.206-1.174c0.898-0.296,1.981-0.444,3.251-0.444
			c0.372,0,0.759,0.019,1.16,0.057c0.411,0.029,0.812,0.072,1.203,0.129c0.401,0.048,0.783,0.11,1.146,0.186
			c0.372,0.067,0.711,0.138,1.017,0.215v3.223c-0.306-0.115-0.64-0.22-1.003-0.315c-0.363-0.095-0.74-0.177-1.132-0.243
			c-0.382-0.076-0.769-0.134-1.16-0.172c-0.391-0.038-0.764-0.057-1.117-0.057c-0.621,0-1.146,0.053-1.576,0.158
			c-0.43,0.095-0.783,0.234-1.06,0.415c-0.277,0.172-0.477,0.387-0.602,0.645c-0.124,0.258-0.186,0.544-0.186,0.859
			c0,0.391,0.129,0.73,0.387,1.017c0.267,0.277,0.616,0.53,1.046,0.759c0.439,0.22,0.931,0.43,1.475,0.63
			c0.554,0.191,1.117,0.401,1.69,0.63c0.582,0.22,1.146,0.473,1.69,0.759c0.554,0.286,1.046,0.635,1.475,1.046
			c0.439,0.411,0.788,0.898,1.046,1.461C85.53,24.282,85.663,24.941,85.663,25.704z"/>
		<path id="path83" style="fill:#FFFFFF;" d="M101.59,30.631c-0.831,0.334-1.638,0.582-2.421,0.745
			c-0.773,0.162-1.58,0.243-2.421,0.243c-1.346,0-2.54-0.196-3.581-0.587c-1.031-0.401-1.905-0.993-2.621-1.776
			c-0.707-0.783-1.246-1.752-1.618-2.908c-0.363-1.165-0.544-2.516-0.544-4.053c0-1.576,0.201-2.974,0.602-4.197
			c0.401-1.232,0.974-2.268,1.719-3.108c0.745-0.85,1.647-1.494,2.707-1.934c1.069-0.449,2.268-0.673,3.595-0.673
			c0.43,0,0.831,0.01,1.203,0.029c0.382,0.019,0.754,0.057,1.117,0.115c0.363,0.048,0.73,0.115,1.103,0.201
			c0.372,0.086,0.759,0.196,1.16,0.329v3.495c-0.812-0.382-1.585-0.654-2.32-0.816s-1.404-0.243-2.005-0.243
			c-0.888,0-1.647,0.162-2.277,0.487c-0.63,0.315-1.151,0.764-1.561,1.346c-0.401,0.573-0.697,1.26-0.888,2.062
			c-0.191,0.793-0.286,1.666-0.286,2.621c0,1.012,0.095,1.919,0.286,2.721c0.201,0.793,0.506,1.466,0.917,2.02
			c0.411,0.554,0.936,0.979,1.576,1.275c0.64,0.286,1.399,0.43,2.277,0.43c0.315,0,0.654-0.029,1.017-0.086
			c0.372-0.067,0.745-0.148,1.117-0.243c0.382-0.105,0.754-0.224,1.117-0.358c0.372-0.143,0.716-0.286,1.031-0.43L101.59,30.631z"/>
		<path id="path85" style="fill:#FFFFFF;" d="M105.515,15.521v-2.879h11.831v2.879h-4.125v12.934h4.125v2.908h-11.831v-2.908h4.125
			V15.521H105.515z"/>
		<path id="path87" style="fill:#FFFFFF;" d="M85.434,54.821c-0.831,0.334-1.638,0.582-2.421,0.745
			c-0.773,0.162-1.58,0.243-2.421,0.243c-1.346,0-2.54-0.196-3.581-0.587c-1.031-0.401-1.905-0.993-2.621-1.776
			c-0.707-0.783-1.246-1.752-1.618-2.908c-0.363-1.165-0.544-2.516-0.544-4.053c0-1.576,0.201-2.974,0.602-4.197
			c0.401-1.232,0.974-2.268,1.719-3.108c0.745-0.85,1.647-1.494,2.707-1.934c1.069-0.449,2.268-0.673,3.595-0.673
			c0.43,0,0.831,0.01,1.203,0.029c0.382,0.019,0.754,0.057,1.117,0.115c0.363,0.048,0.73,0.115,1.103,0.201s0.759,0.196,1.16,0.329
			v3.495c-0.812-0.382-1.585-0.654-2.32-0.816s-1.404-0.243-2.005-0.243c-0.888,0-1.647,0.162-2.277,0.487
			c-0.63,0.315-1.151,0.764-1.561,1.346c-0.401,0.573-0.697,1.26-0.888,2.062c-0.191,0.793-0.286,1.666-0.286,2.621
			c0,1.012,0.095,1.919,0.286,2.721c0.201,0.793,0.506,1.466,0.917,2.02s0.936,0.979,1.576,1.275c0.64,0.286,1.399,0.43,2.277,0.43
			c0.315,0,0.654-0.029,1.017-0.086c0.372-0.067,0.745-0.148,1.117-0.243c0.382-0.105,0.754-0.224,1.117-0.358
			c0.372-0.143,0.716-0.286,1.031-0.43L85.434,54.821z"/>
		<path id="path89" style="fill:#FFFFFF;" d="M102.808,46.113c0,1.7-0.201,3.165-0.602,4.397c-0.391,1.232-0.936,2.244-1.633,3.036
			c-0.688,0.793-1.499,1.38-2.435,1.762c-0.926,0.382-1.919,0.573-2.979,0.573c-2.464,0-4.316-0.816-5.557-2.449
			c-1.241-1.642-1.862-4.025-1.862-7.147c0-1.7,0.196-3.165,0.587-4.397c0.401-1.232,0.945-2.244,1.633-3.036
			c0.697-0.793,1.509-1.38,2.435-1.762c0.936-0.382,1.934-0.573,2.993-0.573c2.464,0,4.316,0.816,5.557,2.449
			C102.187,40.598,102.808,42.981,102.808,46.113z M99.084,46.285c0-2.215-0.296-3.867-0.888-4.956s-1.566-1.633-2.922-1.633
			c-0.678,0-1.256,0.143-1.733,0.43c-0.477,0.277-0.874,0.688-1.189,1.232c-0.306,0.544-0.53,1.217-0.673,2.02
			c-0.143,0.793-0.215,1.704-0.215,2.736c0,2.215,0.296,3.867,0.888,4.956c0.602,1.089,1.576,1.633,2.922,1.633
			c0.678,0,1.256-0.138,1.733-0.415c0.487-0.286,0.883-0.702,1.189-1.246s0.53-1.213,0.673-2.005
			C99.012,48.233,99.084,47.316,99.084,46.285z"/>
		<path id="path91" style="fill:#FFFFFF;" d="M115.741,55.552l-0.344-10.585l-0.129-4.225l-0.902,2.865l-2.077,6.374h-2.206
			l-1.876-6.374l-0.788-2.865l-0.1,4.139l-0.315,10.671h-2.993l0.917-18.72h3.982l1.647,5.314l0.788,2.993l0.788-2.822l1.733-5.486
			h4.053l0.931,18.72L115.741,55.552L115.741,55.552z"/>
	</g>
	<g style="enable-background:new    ;">
		<path style="fill:#FFFFFF;" d="M26.033,14.948v3.542c0,0.373,0,0.498,0,0.373c0.628-0.061,1.571-0.124,2.829-0.187
			c1.194-0.061,2.106-0.093,2.735-0.093v2.889c-0.44,0-1.131-0.03-2.075-0.093c-0.881-0.062-1.572-0.093-2.075-0.093h-1.509
			c-0.127,2.548-0.504,4.692-1.132,6.431c-0.943,2.362-2.704,4.473-5.281,6.337c-0.063,0.124-0.157,0.124-0.283,0
			c-0.252-0.187-0.692-0.498-1.32-0.932c-0.315-0.125-0.566-0.249-0.754-0.373v-0.186c3.772-2.857,5.814-6.058,6.13-9.6
			c0-0.186,0.031-0.466,0.094-0.839c0-0.373,0.031-0.652,0.094-0.838h-5.564v6.151h-2.923c0.125-1.491,0.188-3.043,0.188-4.66
			v-1.491h-1.32c-0.504,0-1.258,0.032-2.263,0.093c-1.006,0.062-1.761,0.093-2.264,0.093v-2.982c0.439,0,1.068,0.062,1.886,0.186
			c1.194,0.125,2.106,0.187,2.735,0.187h1.226v-2.889c0-0.31-0.063-0.839-0.188-1.584c-0.063-0.373-0.094-0.652-0.094-0.838
			c1.131,0.062,2.2,0.156,3.206,0.279c0,0.125-0.032,0.312-0.094,0.559c-0.063,0.249-0.094,0.466-0.094,0.652v3.821h5.658v-0.373
			c0-0.746-0.094-1.895-0.283-3.449c-0.127-0.807-0.221-1.398-0.283-1.771c1.131,0.062,2.2,0.156,3.206,0.28
			c0.062,0.186,0.031,0.466-0.094,0.838C26.063,14.637,26.033,14.824,26.033,14.948z"/>
		<path style="fill:#FFFFFF;" d="M50.458,12.898h0.377l2.641,2.423v0.187c-0.943,0.373-2.107,1.305-3.489,2.796
			c-0.377,0.373-0.66,0.652-0.849,0.839c-0.063,0.062-0.221,0.186-0.472,0.373c-0.188,0.187-0.346,0.342-0.472,0.466v4.101
			c0,1.367,0.062,3.387,0.188,6.058c0.125,1.678,0.189,2.95,0.189,3.821h-3.207c0.062-0.995,0.094-2.083,0.094-3.262
			c0-1.056,0-2.609,0-4.66v-3.915c-2.013,1.491-4.527,3.076-7.544,4.753c-0.127,0.062-0.188,0.062-0.188,0l-1.98-1.864v-0.186
			c2.702-1.242,5.187-2.764,7.45-4.567C46.717,17.837,49.138,15.383,50.458,12.898z"/>
	</g>
	<g style="enable-background:new    ;">
	</g>
	<g style="enable-background:new    ;">
		<path style="fill:#FFFFFF;" d="M15.188,38.723h6.696c2.075,0,4.117-0.031,6.13-0.093v9.133c0,0.746,0.031,1.833,0.094,3.262
			c0,1.368,0,2.393,0,3.076h-2.829v-0.932c-3.145,0-5.533,0-7.167,0c-1.949,0-3.71,0.032-5.281,0.093v-2.889
			c1.131,0.063,2.357,0.093,3.678,0.093h3.112c1.886,0,3.772-0.03,5.658-0.093v-8.854h-7.262c-0.566,0-1.415,0-2.546,0
			c-1.195,0.062-2.075,0.093-2.64,0.093v-3.076C13.646,38.662,14.433,38.723,15.188,38.723z"/>
		<path style="fill:#FFFFFF;" d="M42.631,37.045h0.283c1.194,0.312,2.358,0.746,3.489,1.305v0.28l-0.565,0.466
			c-0.377,0.187-0.693,0.685-0.943,1.491c-0.126,0.373-0.221,0.622-0.283,0.746c-1.447,3.728-2.893,6.803-4.338,9.227h0.095
			c0.313,0,0.565-0.031,0.754-0.093c2.954-0.187,5.847-0.559,8.676-1.118c-0.126-0.124-0.283-0.311-0.471-0.559
			c-0.881-1.305-1.636-2.237-2.264-2.796v-0.186l1.792-1.398h0.188c1.823,1.554,3.961,3.977,6.413,7.269v0.187l-1.698,1.678
			c-0.063,0-0.126,0.062-0.188,0.187c-0.315,0.186-0.535,0.279-0.66,0.279c-0.188-0.31-0.504-0.776-0.943-1.398
			c-0.252-0.497-0.472-0.869-0.66-1.118h-0.094c-2.641,0.498-6.602,1.118-11.883,1.864c-1.006,0.125-1.761,0.218-2.263,0.28
			c-0.063,0-0.221,0.032-0.472,0.093c-0.188,0.062-0.346,0.125-0.472,0.186c-0.063,0.063-0.188,0.125-0.377,0.187
			c-0.127,0-0.252,0.031-0.377,0.093l-0.094,0.093c-0.126,0.186-0.283,0.248-0.472,0.186l-1.037-3.262l0.094-0.28h0.472
			c1.005,0,1.98-0.03,2.923-0.093h0.094C40.304,45.309,42.065,40.712,42.631,37.045z"/>
	</g>
</g>
<g>
	<rect id="svg_32" x="129.348" y="66.447" style="fill:none;" width="54.401" height="58.343"/>
	<g style="enable-background:new    ;">
		<path style="fill:#656565;" d="M137.83,76.35c0,0.94-0.284,1.663-0.853,2.167c-0.567,0.504-1.401,0.756-2.497,0.756
			c-0.958,0-1.828-0.174-2.611-0.523l0.41-0.952c0.666,0.286,1.4,0.429,2.201,0.429c0.693,0,1.195-0.159,1.506-0.476
			c0.312-0.317,0.467-0.813,0.467-1.486v-7.444h1.377V76.35z"/>
		<path style="fill:#656565;" d="M149.645,79.076h-1.303c-0.105-0.305-0.158-0.712-0.158-1.221c-0.745,0.945-1.758,1.417-3.04,1.417
			c-0.649,0-1.222-0.2-1.718-0.6c-0.495-0.4-0.742-0.915-0.742-1.545c0-0.373,0.086-0.703,0.26-0.988
			c0.174-0.286,0.428-0.527,0.764-0.724s0.745-0.351,1.227-0.465c0.481-0.114,1.053-0.193,1.713-0.236l1.469-0.102v-0.363
			c0-1.299-0.699-1.948-2.099-1.948c-0.331,0-0.749,0.062-1.255,0.186c-0.507,0.124-0.942,0.27-1.307,0.44l-0.344-0.814
			c1.192-0.528,2.301-0.792,3.325-0.792c1.993,0,2.989,0.914,2.989,2.741v3.256C149.426,77.976,149.498,78.562,149.645,79.076z
			 M148.115,76.83v-1.374c-1.181,0.092-1.99,0.178-2.43,0.258c-0.439,0.08-0.82,0.229-1.143,0.447
			c-0.322,0.218-0.482,0.514-0.482,0.887c0,0.339,0.137,0.613,0.411,0.822s0.624,0.312,1.05,0.312c0.465,0,0.926-0.12,1.385-0.36
			S147.769,77.251,148.115,76.83z"/>
		<path style="fill:#656565;" d="M154.312,72.483c0.291-0.349,0.684-0.63,1.18-0.843c0.495-0.213,1.018-0.32,1.566-0.32
			c1.007,0,1.798,0.36,2.371,1.08c0.574,0.72,0.861,1.656,0.861,2.81c0,1.163-0.301,2.131-0.902,2.904
			c-0.603,0.773-1.412,1.16-2.432,1.16c-0.543,0-1.051-0.118-1.523-0.353s-0.848-0.546-1.121-0.934v4.085h-1.311V71.502h1.311
			V72.483z M154.312,73.609v3.147c0.246,0.426,0.579,0.783,0.999,1.068c0.42,0.286,0.854,0.429,1.302,0.429
			c0.705,0,1.266-0.286,1.684-0.858c0.416-0.572,0.625-1.282,0.625-2.13c0-0.872-0.199-1.584-0.596-2.137
			c-0.398-0.552-0.952-0.829-1.662-0.829C155.74,72.301,154.956,72.737,154.312,73.609z"/>
		<path style="fill:#656565;" d="M170.283,79.076h-1.303c-0.105-0.305-0.158-0.712-0.158-1.221c-0.745,0.945-1.758,1.417-3.04,1.417
			c-0.649,0-1.222-0.2-1.718-0.6c-0.495-0.4-0.742-0.915-0.742-1.545c0-0.373,0.086-0.703,0.26-0.988
			c0.174-0.286,0.428-0.527,0.764-0.724s0.745-0.351,1.227-0.465c0.481-0.114,1.053-0.193,1.713-0.236l1.469-0.102v-0.363
			c0-1.299-0.699-1.948-2.099-1.948c-0.331,0-0.749,0.062-1.255,0.186c-0.507,0.124-0.942,0.27-1.307,0.44l-0.344-0.814
			c1.192-0.528,2.301-0.792,3.325-0.792c1.993,0,2.989,0.914,2.989,2.741v3.256C170.064,77.976,170.137,78.562,170.283,79.076z
			 M168.754,76.83v-1.374c-1.181,0.092-1.99,0.178-2.43,0.258c-0.439,0.08-0.82,0.229-1.143,0.447
			c-0.322,0.218-0.482,0.514-0.482,0.887c0,0.339,0.137,0.613,0.411,0.822s0.624,0.312,1.05,0.312c0.465,0,0.926-0.12,1.385-0.36
			S168.407,77.251,168.754,76.83z"/>
		<path style="fill:#656565;" d="M180.384,79.076h-1.31V74.22c0-0.673-0.125-1.162-0.374-1.464s-0.64-0.455-1.171-0.455
			c-0.801,0-1.66,0.432-2.578,1.294v5.481h-1.311v-7.574h1.311v1.112c0.94-0.862,1.932-1.294,2.973-1.294
			c1.64,0,2.46,0.858,2.46,2.573V79.076z"/>
	</g>
	<g style="enable-background:new    ;">
		<path style="fill:none;stroke:#656565;stroke-width:0.5374;stroke-miterlimit:10;" d="M137.83,76.35
			c0,0.94-0.284,1.663-0.853,2.167c-0.567,0.504-1.401,0.756-2.497,0.756c-0.958,0-1.828-0.174-2.611-0.523l0.41-0.952
			c0.666,0.286,1.4,0.429,2.201,0.429c0.693,0,1.195-0.159,1.506-0.476c0.312-0.317,0.467-0.813,0.467-1.486v-7.444h1.377V76.35z"/>
		<path style="fill:none;stroke:#656565;stroke-width:0.5374;stroke-miterlimit:10;" d="M149.645,79.076h-1.303
			c-0.105-0.305-0.158-0.712-0.158-1.221c-0.745,0.945-1.758,1.417-3.04,1.417c-0.649,0-1.222-0.2-1.718-0.6
			c-0.495-0.4-0.742-0.915-0.742-1.545c0-0.373,0.086-0.703,0.26-0.988c0.174-0.286,0.428-0.527,0.764-0.724
			s0.745-0.351,1.227-0.465c0.481-0.114,1.053-0.193,1.713-0.236l1.469-0.102v-0.363c0-1.299-0.699-1.948-2.099-1.948
			c-0.331,0-0.749,0.062-1.255,0.186c-0.507,0.124-0.942,0.27-1.307,0.44l-0.344-0.814c1.192-0.528,2.301-0.792,3.325-0.792
			c1.993,0,2.989,0.914,2.989,2.741v3.256C149.426,77.976,149.498,78.562,149.645,79.076z M148.115,76.83v-1.374
			c-1.181,0.092-1.99,0.178-2.43,0.258c-0.439,0.08-0.82,0.229-1.143,0.447c-0.322,0.218-0.482,0.514-0.482,0.887
			c0,0.339,0.137,0.613,0.411,0.822s0.624,0.312,1.05,0.312c0.465,0,0.926-0.12,1.385-0.36S147.769,77.251,148.115,76.83z"/>
		<path style="fill:none;stroke:#656565;stroke-width:0.5374;stroke-miterlimit:10;" d="M154.312,72.483
			c0.291-0.349,0.684-0.63,1.18-0.843c0.495-0.213,1.018-0.32,1.566-0.32c1.007,0,1.798,0.36,2.371,1.08
			c0.574,0.72,0.861,1.656,0.861,2.81c0,1.163-0.301,2.131-0.902,2.904c-0.603,0.773-1.412,1.16-2.432,1.16
			c-0.543,0-1.051-0.118-1.523-0.353s-0.848-0.546-1.121-0.934v4.085h-1.311V71.502h1.311V72.483z M154.312,73.609v3.147
			c0.246,0.426,0.579,0.783,0.999,1.068c0.42,0.286,0.854,0.429,1.302,0.429c0.705,0,1.266-0.286,1.684-0.858
			c0.416-0.572,0.625-1.282,0.625-2.13c0-0.872-0.199-1.584-0.596-2.137c-0.398-0.552-0.952-0.829-1.662-0.829
			C155.74,72.301,154.956,72.737,154.312,73.609z"/>
		<path style="fill:none;stroke:#656565;stroke-width:0.5374;stroke-miterlimit:10;" d="M170.283,79.076h-1.303
			c-0.105-0.305-0.158-0.712-0.158-1.221c-0.745,0.945-1.758,1.417-3.04,1.417c-0.649,0-1.222-0.2-1.718-0.6
			c-0.495-0.4-0.742-0.915-0.742-1.545c0-0.373,0.086-0.703,0.26-0.988c0.174-0.286,0.428-0.527,0.764-0.724
			s0.745-0.351,1.227-0.465c0.481-0.114,1.053-0.193,1.713-0.236l1.469-0.102v-0.363c0-1.299-0.699-1.948-2.099-1.948
			c-0.331,0-0.749,0.062-1.255,0.186c-0.507,0.124-0.942,0.27-1.307,0.44l-0.344-0.814c1.192-0.528,2.301-0.792,3.325-0.792
			c1.993,0,2.989,0.914,2.989,2.741v3.256C170.064,77.976,170.137,78.562,170.283,79.076z M168.754,76.83v-1.374
			c-1.181,0.092-1.99,0.178-2.43,0.258c-0.439,0.08-0.82,0.229-1.143,0.447c-0.322,0.218-0.482,0.514-0.482,0.887
			c0,0.339,0.137,0.613,0.411,0.822s0.624,0.312,1.05,0.312c0.465,0,0.926-0.12,1.385-0.36S168.407,77.251,168.754,76.83z"/>
		<path style="fill:none;stroke:#656565;stroke-width:0.5374;stroke-miterlimit:10;" d="M180.384,79.076h-1.31V74.22
			c0-0.673-0.125-1.162-0.374-1.464s-0.64-0.455-1.171-0.455c-0.801,0-1.66,0.432-2.578,1.294v5.481h-1.311v-7.574h1.311v1.112
			c0.94-0.862,1.932-1.294,2.973-1.294c1.64,0,2.46,0.858,2.46,2.573V79.076z"/>
	</g>
	<g style="enable-background:new    ;">
	</g>
	<g style="enable-background:new    ;">
		<path style="fill:#656565;" d="M138.988,89.569h-4.903v3.351h4.468v1.04h-4.468v4.827h-1.377V88.529h6.28V89.569z"/>
		<path style="fill:#656565;" d="M146.033,91.03c1.203,0,2.16,0.364,2.871,1.091c0.711,0.727,1.066,1.684,1.066,2.871
			c0,1.197-0.355,2.162-1.066,2.894s-1.668,1.098-2.871,1.098c-1.209,0-2.168-0.364-2.875-1.095
			c-0.709-0.729-1.062-1.694-1.062-2.896c0-1.192,0.355-2.15,1.066-2.875S144.83,91.03,146.033,91.03z M146.033,97.993
			c0.795,0,1.422-0.29,1.881-0.871c0.459-0.582,0.688-1.287,0.688-2.115c0-0.873-0.227-1.59-0.68-2.152
			c-0.454-0.562-1.083-0.843-1.89-0.843c-0.812,0-1.441,0.277-1.889,0.833c-0.448,0.555-0.672,1.275-0.672,2.163
			c0,0.843,0.227,1.551,0.68,2.125S145.232,97.993,146.033,97.993z"/>
		<path style="fill:#656565;" d="M159.879,91.415l-0.529,1.091c-0.576-0.218-1.074-0.327-1.494-0.327
			c-0.387,0-0.764,0.096-1.133,0.287c-0.37,0.191-0.71,0.465-1.021,0.821c-0.312,0.356-0.466,0.556-0.466,0.6v4.899h-1.302v-7.574
			h1.302v1.534c0.699-1.144,1.605-1.716,2.721-1.716C158.617,91.03,159.258,91.159,159.879,91.415z"/>
		<path style="fill:#656565;" d="M170.047,98.786h-1.309v-1.119c-0.941,0.867-1.932,1.301-2.973,1.301
			c-1.641,0-2.461-0.859-2.461-2.58v-5.176h1.311v4.848c0,0.645,0.117,1.127,0.353,1.443c0.235,0.318,0.632,0.477,1.192,0.477
			c0.801,0,1.659-0.432,2.578-1.294v-5.474h1.309V98.786z"/>
		<path style="fill:#656565;" d="M181.072,98.786h-1.311v-4.972c0-1.202-0.257-1.803-0.771-1.803c-0.264,0-0.553,0.208-0.869,0.622
			c-0.316,0.415-0.475,0.644-0.475,0.687v5.466h-1.302v-4.972c0-1.202-0.261-1.803-0.78-1.803c-0.258,0-0.545,0.208-0.861,0.622
			c-0.316,0.415-0.475,0.644-0.475,0.687v5.466h-1.31v-7.574h1.26v1.141c0.246-0.402,0.538-0.723,0.878-0.963
			c0.338-0.24,0.676-0.36,1.012-0.36c0.352,0,0.668,0.12,0.948,0.36c0.28,0.24,0.474,0.561,0.579,0.963
			c0.246-0.402,0.541-0.723,0.882-0.963c0.341-0.24,0.677-0.36,1.008-0.36c1.058,0,1.587,0.819,1.587,2.457V98.786z"/>
	</g>
	<g style="enable-background:new    ;">
		<path style="fill:none;stroke:#656565;stroke-width:0.5374;stroke-miterlimit:10;" d="M138.988,89.569h-4.903v3.351h4.468v1.04
			h-4.468v4.827h-1.377V88.529h6.28V89.569z"/>
		<path style="fill:none;stroke:#656565;stroke-width:0.5374;stroke-miterlimit:10;" d="M146.033,91.03
			c1.203,0,2.16,0.364,2.871,1.091c0.711,0.727,1.066,1.684,1.066,2.871c0,1.197-0.355,2.162-1.066,2.894s-1.668,1.098-2.871,1.098
			c-1.209,0-2.168-0.364-2.875-1.095c-0.709-0.729-1.062-1.694-1.062-2.896c0-1.192,0.355-2.15,1.066-2.875
			S144.83,91.03,146.033,91.03z M146.033,97.993c0.795,0,1.422-0.29,1.881-0.871c0.459-0.582,0.688-1.287,0.688-2.115
			c0-0.873-0.227-1.59-0.68-2.152c-0.454-0.562-1.083-0.843-1.89-0.843c-0.812,0-1.441,0.277-1.889,0.833
			c-0.448,0.555-0.672,1.275-0.672,2.163c0,0.843,0.227,1.551,0.68,2.125S145.232,97.993,146.033,97.993z"/>
		<path style="fill:none;stroke:#656565;stroke-width:0.5374;stroke-miterlimit:10;" d="M159.879,91.415l-0.529,1.091
			c-0.576-0.218-1.074-0.327-1.494-0.327c-0.387,0-0.764,0.096-1.133,0.287c-0.37,0.191-0.71,0.465-1.021,0.821
			c-0.312,0.356-0.466,0.556-0.466,0.6v4.899h-1.302v-7.574h1.302v1.534c0.699-1.144,1.605-1.716,2.721-1.716
			C158.617,91.03,159.258,91.159,159.879,91.415z"/>
		<path style="fill:none;stroke:#656565;stroke-width:0.5374;stroke-miterlimit:10;" d="M170.047,98.786h-1.309v-1.119
			c-0.941,0.867-1.932,1.301-2.973,1.301c-1.641,0-2.461-0.859-2.461-2.58v-5.176h1.311v4.848c0,0.645,0.117,1.127,0.353,1.443
			c0.235,0.318,0.632,0.477,1.192,0.477c0.801,0,1.659-0.432,2.578-1.294v-5.474h1.309V98.786z"/>
		<path style="fill:none;stroke:#656565;stroke-width:0.5374;stroke-miterlimit:10;" d="M181.072,98.786h-1.311v-4.972
			c0-1.202-0.257-1.803-0.771-1.803c-0.264,0-0.553,0.208-0.869,0.622c-0.316,0.415-0.475,0.644-0.475,0.687v5.466h-1.302v-4.972
			c0-1.202-0.261-1.803-0.78-1.803c-0.258,0-0.545,0.208-0.861,0.622c-0.316,0.415-0.475,0.644-0.475,0.687v5.466h-1.31v-7.574h1.26
			v1.141c0.246-0.402,0.538-0.723,0.878-0.963c0.338-0.24,0.676-0.36,1.012-0.36c0.352,0,0.668,0.12,0.948,0.36
			c0.28,0.24,0.474,0.561,0.579,0.963c0.246-0.402,0.541-0.723,0.882-0.963c0.341-0.24,0.677-0.36,1.008-0.36
			c1.058,0,1.587,0.819,1.587,2.457V98.786z"/>
	</g>
	<g style="enable-background:new    ;">
	</g>
	<g style="enable-background:new    ;">
		<path style="fill:#656565;" d="M143.805,118.892h-6.516v-0.865c1.651-1.595,2.723-2.663,3.216-3.206
			c0.493-0.542,0.894-1.112,1.2-1.708c0.309-0.596,0.463-1.189,0.463-1.781c0-0.572-0.201-1.022-0.601-1.352
			c-0.4-0.33-0.962-0.494-1.684-0.494c-0.554,0-1.299,0.147-2.233,0.443l-0.193-1.025c0.846-0.311,1.73-0.465,2.653-0.465
			c1.058,0,1.91,0.258,2.557,0.773c0.646,0.517,0.97,1.206,0.97,2.068c0,0.615-0.166,1.227-0.5,1.832
			c-0.332,0.605-0.76,1.188-1.279,1.744c-0.521,0.558-1.534,1.556-3.04,2.995h4.987V118.892z"/>
		<path style="fill:#656565;" d="M151.025,108.439c1.254,0,2.219,0.467,2.893,1.398c0.675,0.934,1.012,2.243,1.012,3.93
			c0,1.633-0.326,2.928-0.982,3.885c-0.654,0.957-1.629,1.436-2.922,1.436c-1.248,0-2.211-0.465-2.888-1.395
			c-0.678-0.932-1.017-2.24-1.017-3.926c0-1.639,0.329-2.936,0.986-3.893C148.766,108.917,149.738,108.439,151.025,108.439z
			 M151.025,118.04c0.829,0,1.443-0.34,1.844-1.021s0.6-1.765,0.6-3.253c0-1.492-0.199-2.577-0.6-3.253
			c-0.4-0.677-1.015-1.015-1.844-1.015c-0.816,0-1.427,0.348-1.83,1.04c-0.402,0.692-0.604,1.769-0.604,3.228
			c0,1.479,0.2,2.56,0.601,3.246C149.592,117.698,150.203,118.04,151.025,118.04z M150.992,112.677c0.353,0,0.65,0.104,0.895,0.315
			c0.243,0.211,0.365,0.469,0.365,0.774c0,0.314-0.123,0.585-0.369,0.811c-0.247,0.225-0.543,0.338-0.891,0.338
			c-0.342,0-0.634-0.113-0.877-0.338c-0.244-0.226-0.365-0.496-0.365-0.811c0-0.311,0.119-0.569,0.356-0.777
			C150.344,112.78,150.64,112.677,150.992,112.677z"/>
		<path style="fill:#656565;" d="M164.443,118.892h-6.516v-0.865c1.651-1.595,2.723-2.663,3.216-3.206
			c0.493-0.542,0.894-1.112,1.2-1.708c0.309-0.596,0.463-1.189,0.463-1.781c0-0.572-0.201-1.022-0.601-1.352
			c-0.4-0.33-0.962-0.494-1.684-0.494c-0.554,0-1.299,0.147-2.233,0.443l-0.193-1.025c0.846-0.311,1.73-0.465,2.653-0.465
			c1.058,0,1.91,0.258,2.557,0.773c0.646,0.517,0.97,1.206,0.97,2.068c0,0.615-0.166,1.227-0.5,1.832
			c-0.332,0.605-0.76,1.188-1.279,1.744c-0.521,0.558-1.534,1.556-3.04,2.995h4.987V118.892z"/>
		<path style="fill:#656565;" d="M171.664,108.439c1.254,0,2.219,0.467,2.893,1.398c0.675,0.934,1.012,2.243,1.012,3.93
			c0,1.633-0.326,2.928-0.982,3.885c-0.654,0.957-1.629,1.436-2.922,1.436c-1.248,0-2.211-0.465-2.888-1.395
			c-0.678-0.932-1.017-2.24-1.017-3.926c0-1.639,0.329-2.936,0.986-3.893C169.404,108.917,170.377,108.439,171.664,108.439z
			 M171.664,118.04c0.829,0,1.443-0.34,1.844-1.021s0.6-1.765,0.6-3.253c0-1.492-0.199-2.577-0.6-3.253
			c-0.4-0.677-1.015-1.015-1.844-1.015c-0.816,0-1.427,0.348-1.83,1.04c-0.402,0.692-0.604,1.769-0.604,3.228
			c0,1.479,0.2,2.56,0.601,3.246C170.23,117.698,170.842,118.04,171.664,118.04z M171.631,112.677c0.353,0,0.65,0.104,0.895,0.315
			c0.243,0.211,0.365,0.469,0.365,0.774c0,0.314-0.123,0.585-0.369,0.811c-0.247,0.225-0.543,0.338-0.891,0.338
			c-0.342,0-0.634-0.113-0.877-0.338c-0.244-0.226-0.365-0.496-0.365-0.811c0-0.311,0.119-0.569,0.356-0.777
			C170.982,112.78,171.278,112.677,171.631,112.677z"/>
	</g>
	<g style="enable-background:new    ;">
		<path style="fill:none;stroke:#656565;stroke-width:0.5374;stroke-miterlimit:10;" d="M143.805,118.892h-6.516v-0.865
			c1.651-1.595,2.723-2.663,3.216-3.206c0.493-0.542,0.894-1.112,1.2-1.708c0.309-0.596,0.463-1.189,0.463-1.781
			c0-0.572-0.201-1.022-0.601-1.352c-0.4-0.33-0.962-0.494-1.684-0.494c-0.554,0-1.299,0.147-2.233,0.443l-0.193-1.025
			c0.846-0.311,1.73-0.465,2.653-0.465c1.058,0,1.91,0.258,2.557,0.773c0.646,0.517,0.97,1.206,0.97,2.068
			c0,0.615-0.166,1.227-0.5,1.832c-0.332,0.605-0.76,1.188-1.279,1.744c-0.521,0.558-1.534,1.556-3.04,2.995h4.987V118.892z"/>
		<path style="fill:none;stroke:#656565;stroke-width:0.5374;stroke-miterlimit:10;" d="M151.025,108.439
			c1.254,0,2.219,0.467,2.893,1.398c0.675,0.934,1.012,2.243,1.012,3.93c0,1.633-0.326,2.928-0.982,3.885
			c-0.654,0.957-1.629,1.436-2.922,1.436c-1.248,0-2.211-0.465-2.888-1.395c-0.678-0.932-1.017-2.24-1.017-3.926
			c0-1.639,0.329-2.936,0.986-3.893C148.766,108.917,149.738,108.439,151.025,108.439z M151.025,118.04
			c0.829,0,1.443-0.34,1.844-1.021s0.6-1.765,0.6-3.253c0-1.492-0.199-2.577-0.6-3.253c-0.4-0.677-1.015-1.015-1.844-1.015
			c-0.816,0-1.427,0.348-1.83,1.04c-0.402,0.692-0.604,1.769-0.604,3.228c0,1.479,0.2,2.56,0.601,3.246
			C149.592,117.698,150.203,118.04,151.025,118.04z M150.992,112.677c0.353,0,0.65,0.104,0.895,0.315
			c0.243,0.211,0.365,0.469,0.365,0.774c0,0.314-0.123,0.585-0.369,0.811c-0.247,0.225-0.543,0.338-0.891,0.338
			c-0.342,0-0.634-0.113-0.877-0.338c-0.244-0.226-0.365-0.496-0.365-0.811c0-0.311,0.119-0.569,0.356-0.777
			C150.344,112.78,150.64,112.677,150.992,112.677z"/>
		<path style="fill:none;stroke:#656565;stroke-width:0.5374;stroke-miterlimit:10;" d="M164.443,118.892h-6.516v-0.865
			c1.651-1.595,2.723-2.663,3.216-3.206c0.493-0.542,0.894-1.112,1.2-1.708c0.309-0.596,0.463-1.189,0.463-1.781
			c0-0.572-0.201-1.022-0.601-1.352c-0.4-0.33-0.962-0.494-1.684-0.494c-0.554,0-1.299,0.147-2.233,0.443l-0.193-1.025
			c0.846-0.311,1.73-0.465,2.653-0.465c1.058,0,1.91,0.258,2.557,0.773c0.646,0.517,0.97,1.206,0.97,2.068
			c0,0.615-0.166,1.227-0.5,1.832c-0.332,0.605-0.76,1.188-1.279,1.744c-0.521,0.558-1.534,1.556-3.04,2.995h4.987V118.892z"/>
		<path style="fill:none;stroke:#656565;stroke-width:0.5374;stroke-miterlimit:10;" d="M171.664,108.439
			c1.254,0,2.219,0.467,2.893,1.398c0.675,0.934,1.012,2.243,1.012,3.93c0,1.633-0.326,2.928-0.982,3.885
			c-0.654,0.957-1.629,1.436-2.922,1.436c-1.248,0-2.211-0.465-2.888-1.395c-0.678-0.932-1.017-2.24-1.017-3.926
			c0-1.639,0.329-2.936,0.986-3.893C169.404,108.917,170.377,108.439,171.664,108.439z M171.664,118.04
			c0.829,0,1.443-0.34,1.844-1.021s0.6-1.765,0.6-3.253c0-1.492-0.199-2.577-0.6-3.253c-0.4-0.677-1.015-1.015-1.844-1.015
			c-0.816,0-1.427,0.348-1.83,1.04c-0.402,0.692-0.604,1.769-0.604,3.228c0,1.479,0.2,2.56,0.601,3.246
			C170.23,117.698,170.842,118.04,171.664,118.04z M171.631,112.677c0.353,0,0.65,0.104,0.895,0.315
			c0.243,0.211,0.365,0.469,0.365,0.774c0,0.314-0.123,0.585-0.369,0.811c-0.247,0.225-0.543,0.338-0.891,0.338
			c-0.342,0-0.634-0.113-0.877-0.338c-0.244-0.226-0.365-0.496-0.365-0.811c0-0.311,0.119-0.569,0.356-0.777
			C170.982,112.78,171.278,112.677,171.631,112.677z"/>
	</g>
	<g id="svg_38" transform="matrix(3.9421223,0,0,3.9421223,325.29998,-317.51576)">
		<rect id="svg_39" x="-82" y="97.2" style="fill:#656565;" width="15" height="14.8"/>
		<rect id="svg_40" x="-65.7" y="97.2" style="fill:#656565;" width="15" height="14.8"/>
	</g>
	<g id="svg_41" transform="scale(1.0059324,0.99410258)">
		<path id="path68" style="fill:#FFFFFF;" d="M85.663,87.466c0,1.022-0.191,1.91-0.573,2.664c-0.372,0.754-0.898,1.38-1.576,1.876
			c-0.678,0.487-1.485,0.85-2.421,1.089s-1.957,0.358-3.065,0.358c-0.984,0-1.934-0.057-2.85-0.172
			c-0.917-0.115-1.824-0.306-2.721-0.573v-3.48c0.439,0.153,0.898,0.296,1.375,0.43s0.955,0.253,1.432,0.358
			c0.487,0.095,0.969,0.172,1.447,0.229c0.477,0.057,0.941,0.086,1.389,0.086c0.668,0,1.237-0.057,1.704-0.172
			c0.468-0.115,0.85-0.272,1.146-0.473c0.296-0.201,0.511-0.439,0.645-0.716c0.134-0.277,0.201-0.582,0.201-0.917
			c0-0.458-0.134-0.84-0.401-1.146c-0.258-0.315-0.602-0.592-1.031-0.831s-0.921-0.454-1.475-0.645
			c-0.544-0.191-1.103-0.396-1.676-0.616c-0.563-0.22-1.122-0.468-1.676-0.745c-0.544-0.277-1.031-0.621-1.461-1.031
			s-0.778-0.898-1.046-1.461c-0.258-0.573-0.387-1.26-0.387-2.062c0-0.735,0.134-1.432,0.401-2.091
			c0.267-0.659,0.687-1.232,1.26-1.719c0.573-0.497,1.308-0.888,2.206-1.174c0.898-0.296,1.981-0.444,3.251-0.444
			c0.372,0,0.759,0.019,1.16,0.057c0.411,0.029,0.812,0.072,1.203,0.129c0.401,0.048,0.783,0.11,1.146,0.186
			c0.372,0.067,0.711,0.138,1.017,0.215v3.223c-0.306-0.115-0.64-0.22-1.003-0.315s-0.74-0.177-1.132-0.243
			c-0.382-0.076-0.769-0.134-1.16-0.172s-0.764-0.057-1.117-0.057c-0.621,0-1.146,0.053-1.576,0.158
			c-0.43,0.095-0.783,0.234-1.06,0.415c-0.277,0.172-0.477,0.387-0.602,0.645c-0.124,0.258-0.186,0.544-0.186,0.859
			c0,0.391,0.129,0.73,0.387,1.017c0.267,0.277,0.616,0.53,1.046,0.759c0.439,0.22,0.931,0.43,1.475,0.63
			c0.554,0.191,1.117,0.401,1.69,0.63c0.582,0.22,1.146,0.473,1.69,0.759c0.554,0.286,1.046,0.635,1.475,1.046
			c0.439,0.411,0.788,0.898,1.046,1.461C85.53,86.043,85.663,86.702,85.663,87.466L85.663,87.466z"/>
		<path id="path70" style="fill:#FFFFFF;" d="M101.59,92.393c-0.831,0.334-1.638,0.582-2.421,0.745
			c-0.773,0.162-1.58,0.243-2.421,0.243c-1.346,0-2.54-0.196-3.581-0.587c-1.031-0.401-1.905-0.993-2.621-1.776
			c-0.707-0.783-1.246-1.752-1.618-2.908c-0.363-1.165-0.544-2.516-0.544-4.053c0-1.576,0.201-2.974,0.602-4.197
			c0.401-1.232,0.974-2.268,1.719-3.108c0.745-0.85,1.647-1.494,2.707-1.934c1.069-0.449,2.268-0.673,3.595-0.673
			c0.43,0,0.831,0.01,1.203,0.029c0.382,0.019,0.754,0.057,1.117,0.115c0.363,0.048,0.73,0.115,1.103,0.201
			c0.372,0.086,0.759,0.196,1.16,0.329v3.495c-0.812-0.382-1.585-0.654-2.32-0.816s-1.404-0.243-2.005-0.243
			c-0.888,0-1.647,0.162-2.277,0.487c-0.63,0.315-1.151,0.764-1.561,1.346c-0.401,0.573-0.697,1.26-0.888,2.062
			c-0.191,0.793-0.286,1.666-0.286,2.621c0,1.012,0.095,1.919,0.286,2.721c0.201,0.793,0.506,1.466,0.917,2.02
			c0.411,0.554,0.936,0.979,1.576,1.275c0.64,0.286,1.399,0.43,2.277,0.43c0.315,0,0.654-0.029,1.017-0.086
			c0.372-0.067,0.745-0.148,1.117-0.243c0.382-0.105,0.754-0.224,1.117-0.358c0.372-0.143,0.716-0.286,1.031-0.43L101.59,92.393z"/>
		<path id="path72" style="fill:#FFFFFF;" d="M105.515,77.283v-2.879h11.831v2.879h-4.125v12.934h4.125v2.908h-11.831v-2.908h4.125
			V77.283H105.515z"/>
		<path id="path74" style="fill:#FFFFFF;" d="M85.434,116.583c-0.831,0.334-1.638,0.582-2.421,0.745
			c-0.773,0.162-1.58,0.243-2.421,0.243c-1.346,0-2.54-0.196-3.581-0.587c-1.031-0.401-1.905-0.993-2.621-1.776
			c-0.707-0.783-1.246-1.752-1.618-2.908c-0.363-1.165-0.544-2.516-0.544-4.053c0-1.576,0.201-2.974,0.602-4.197
			c0.401-1.232,0.974-2.268,1.719-3.108c0.745-0.85,1.647-1.494,2.707-1.934c1.069-0.449,2.268-0.673,3.595-0.673
			c0.43,0,0.831,0.01,1.203,0.029c0.382,0.019,0.754,0.057,1.117,0.115c0.363,0.048,0.73,0.115,1.103,0.201s0.759,0.196,1.16,0.329
			v3.495c-0.812-0.382-1.585-0.654-2.32-0.816s-1.404-0.243-2.005-0.243c-0.888,0-1.647,0.162-2.277,0.487
			c-0.63,0.315-1.151,0.764-1.561,1.346c-0.401,0.573-0.697,1.26-0.888,2.062c-0.191,0.793-0.286,1.666-0.286,2.621
			c0,1.012,0.095,1.919,0.286,2.721c0.201,0.793,0.506,1.466,0.917,2.02c0.411,0.554,0.936,0.979,1.576,1.275
			c0.64,0.286,1.399,0.43,2.277,0.43c0.315,0,0.654-0.029,1.017-0.086c0.372-0.067,0.745-0.148,1.117-0.243
			c0.382-0.105,0.754-0.224,1.117-0.358c0.372-0.143,0.716-0.286,1.031-0.43L85.434,116.583z"/>
		<path id="path76" style="fill:#FFFFFF;" d="M102.808,107.874c0,1.7-0.201,3.165-0.602,4.397c-0.391,1.232-0.936,2.244-1.633,3.036
			c-0.688,0.793-1.499,1.38-2.435,1.762c-0.926,0.382-1.919,0.573-2.979,0.573c-2.464,0-4.316-0.816-5.557-2.449
			c-1.241-1.642-1.862-4.025-1.862-7.147c0-1.7,0.196-3.165,0.587-4.397c0.401-1.232,0.945-2.244,1.633-3.036
			c0.697-0.793,1.509-1.38,2.435-1.762c0.936-0.382,1.934-0.573,2.993-0.573c2.464,0,4.316,0.816,5.557,2.449
			C102.187,102.36,102.808,104.743,102.808,107.874z M99.084,108.046c0-2.215-0.296-3.867-0.888-4.956
			c-0.592-1.089-1.566-1.633-2.922-1.633c-0.678,0-1.256,0.143-1.733,0.43c-0.477,0.277-0.874,0.687-1.189,1.232
			c-0.306,0.544-0.53,1.217-0.673,2.02c-0.143,0.793-0.215,1.704-0.215,2.736c0,2.215,0.296,3.867,0.888,4.956
			c0.602,1.089,1.576,1.633,2.922,1.633c0.678,0,1.256-0.138,1.733-0.415c0.487-0.286,0.883-0.702,1.189-1.246
			s0.53-1.213,0.673-2.005C99.012,109.994,99.084,109.078,99.084,108.046z"/>
		<path id="path78" style="fill:#FFFFFF;" d="M115.741,117.313l-0.344-10.585l-0.129-4.225l-0.902,2.865l-2.077,6.374h-2.206
			l-1.876-6.374l-0.788-2.865l-0.1,4.139l-0.315,10.671h-2.993l0.917-18.72h3.982l1.647,5.314l0.788,2.993l0.788-2.822l1.733-5.486
			h4.053l0.931,18.72L115.741,117.313z"/>
	</g>
	<g style="enable-background:new    ;">
		<path style="fill:#FFFFFF;" d="M26.033,76.343v3.542c0,0.373,0,0.498,0,0.373c0.628-0.061,1.571-0.124,2.829-0.187
			c1.194-0.061,2.106-0.093,2.735-0.093v2.889c-0.44,0-1.131-0.03-2.075-0.093c-0.881-0.062-1.572-0.093-2.075-0.093h-1.509
			c-0.127,2.548-0.504,4.692-1.132,6.431c-0.943,2.362-2.704,4.473-5.281,6.337c-0.063,0.124-0.157,0.124-0.283,0
			c-0.252-0.186-0.692-0.498-1.32-0.932c-0.315-0.125-0.566-0.249-0.754-0.373v-0.186c3.772-2.857,5.814-6.058,6.13-9.6
			c0-0.186,0.031-0.466,0.094-0.839c0-0.373,0.031-0.652,0.094-0.838h-5.564v6.151h-2.923c0.125-1.491,0.188-3.043,0.188-4.66
			v-1.491h-1.32c-0.504,0-1.258,0.032-2.263,0.093c-1.006,0.062-1.761,0.093-2.264,0.093v-2.982c0.439,0,1.068,0.062,1.886,0.186
			c1.194,0.125,2.106,0.187,2.735,0.187h1.226v-2.889c0-0.31-0.063-0.839-0.188-1.584c-0.063-0.373-0.094-0.652-0.094-0.838
			c1.131,0.062,2.2,0.156,3.206,0.279c0,0.125-0.032,0.312-0.094,0.559c-0.063,0.249-0.094,0.466-0.094,0.652v3.821h5.658v-0.373
			c0-0.746-0.094-1.895-0.283-3.449c-0.127-0.807-0.221-1.398-0.283-1.771c1.131,0.062,2.2,0.156,3.206,0.28
			c0.062,0.186,0.031,0.466-0.094,0.838C26.063,76.033,26.033,76.219,26.033,76.343z"/>
		<path style="fill:#FFFFFF;" d="M50.458,74.293h0.377l2.641,2.423v0.187c-0.943,0.373-2.107,1.305-3.489,2.796
			c-0.377,0.373-0.66,0.652-0.849,0.839c-0.063,0.062-0.221,0.186-0.472,0.373c-0.188,0.187-0.346,0.342-0.472,0.466v4.101
			c0,1.367,0.062,3.387,0.188,6.058c0.125,1.678,0.189,2.95,0.189,3.821h-3.207c0.062-0.995,0.094-2.083,0.094-3.262
			c0-1.056,0-2.609,0-4.66v-3.915c-2.013,1.491-4.527,3.076-7.544,4.753c-0.127,0.062-0.188,0.062-0.188,0l-1.98-1.864v-0.186
			c2.702-1.242,5.187-2.764,7.45-4.567C46.717,79.233,49.138,76.778,50.458,74.293z"/>
	</g>
	<g style="enable-background:new    ;">
	</g>
	<g style="enable-background:new    ;">
		<path style="fill:#FFFFFF;" d="M15.188,100.118h6.696c2.075,0,4.117-0.031,6.13-0.094v9.134c0,0.745,0.031,1.833,0.094,3.262
			c0,1.368,0,2.393,0,3.075h-2.829v-0.932c-3.145,0-5.533,0-7.167,0c-1.949,0-3.71,0.032-5.281,0.094v-2.89
			c1.131,0.063,2.357,0.093,3.678,0.093h3.112c1.886,0,3.772-0.029,5.658-0.093v-8.854h-7.262c-0.566,0-1.415,0-2.546,0
			c-1.195,0.062-2.075,0.093-2.64,0.093v-3.075C13.646,100.058,14.433,100.118,15.188,100.118z"/>
		<path style="fill:#FFFFFF;" d="M42.631,98.441h0.283c1.194,0.312,2.358,0.746,3.489,1.305v0.279l-0.565,0.467
			c-0.377,0.186-0.693,0.684-0.943,1.49c-0.126,0.373-0.221,0.623-0.283,0.746c-1.447,3.729-2.893,6.803-4.338,9.227h0.095
			c0.313,0,0.565-0.031,0.754-0.094c2.954-0.186,5.847-0.559,8.676-1.117c-0.126-0.125-0.283-0.311-0.471-0.56
			c-0.881-1.306-1.636-2.237-2.264-2.796v-0.187l1.792-1.397h0.188c1.823,1.553,3.961,3.977,6.413,7.269v0.187l-1.698,1.678
			c-0.063,0-0.126,0.062-0.188,0.187c-0.315,0.187-0.535,0.279-0.66,0.279c-0.188-0.31-0.504-0.776-0.943-1.397
			c-0.252-0.497-0.472-0.869-0.66-1.119h-0.094c-2.641,0.498-6.602,1.119-11.883,1.864c-1.006,0.126-1.761,0.218-2.263,0.28
			c-0.063,0-0.221,0.031-0.472,0.093c-0.188,0.062-0.346,0.125-0.472,0.187c-0.063,0.062-0.188,0.125-0.377,0.186
			c-0.127,0-0.252,0.031-0.377,0.094l-0.094,0.094c-0.126,0.186-0.283,0.247-0.472,0.186l-1.037-3.262l0.094-0.279h0.472
			c1.005,0,1.98-0.031,2.923-0.094h0.094C40.304,106.704,42.065,102.108,42.631,98.441z"/>
	</g>
</g>
<g>
	<g id="svg_23" transform="matrix(3.9421223,0,0,3.9421223,325.29998,-315.51576)">
		<rect id="svg_24" x="-82" y="112.4" style="fill:#E73929;" width="15" height="14.8"/>
		<rect id="svg_25" x="-65.7" y="112.4" style="fill:#E73929;" width="15" height="14.8"/>
	</g>
	<g id="svg_26" transform="scale(1.0059324,0.99410258)">
		<path id="path55" style="fill:#FFFFFF;" d="M85.663,149.714c0,1.022-0.191,1.91-0.573,2.664c-0.372,0.754-0.898,1.38-1.576,1.876
			c-0.678,0.487-1.485,0.85-2.421,1.089s-1.957,0.358-3.065,0.358c-0.984,0-1.934-0.057-2.85-0.172
			c-0.917-0.115-1.824-0.306-2.721-0.573v-3.48c0.439,0.153,0.898,0.296,1.375,0.43c0.477,0.134,0.955,0.253,1.432,0.358
			c0.487,0.095,0.969,0.172,1.447,0.229c0.477,0.057,0.941,0.086,1.389,0.086c0.668,0,1.237-0.057,1.704-0.172
			c0.468-0.115,0.85-0.272,1.146-0.473s0.511-0.439,0.645-0.716c0.134-0.277,0.201-0.582,0.201-0.917
			c0-0.458-0.134-0.84-0.401-1.146c-0.258-0.315-0.602-0.592-1.031-0.831s-0.921-0.454-1.475-0.645
			c-0.544-0.191-1.103-0.396-1.676-0.616c-0.563-0.22-1.122-0.468-1.676-0.745c-0.544-0.277-1.031-0.621-1.461-1.031
			c-0.43-0.411-0.778-0.898-1.046-1.461c-0.258-0.573-0.387-1.26-0.387-2.062c0-0.735,0.134-1.432,0.401-2.091
			s0.687-1.232,1.26-1.719c0.573-0.497,1.308-0.888,2.206-1.174c0.898-0.296,1.981-0.444,3.251-0.444
			c0.372,0,0.759,0.019,1.16,0.057c0.411,0.029,0.812,0.072,1.203,0.129c0.401,0.048,0.783,0.11,1.146,0.186
			c0.372,0.067,0.711,0.138,1.017,0.215v3.223c-0.306-0.115-0.64-0.22-1.003-0.315s-0.74-0.177-1.132-0.243
			c-0.382-0.076-0.769-0.134-1.16-0.172s-0.764-0.057-1.117-0.057c-0.621,0-1.146,0.053-1.576,0.158
			c-0.43,0.095-0.783,0.234-1.06,0.415c-0.277,0.172-0.477,0.387-0.602,0.645c-0.124,0.258-0.186,0.544-0.186,0.859
			c0,0.391,0.129,0.73,0.387,1.017c0.267,0.277,0.616,0.53,1.046,0.759c0.439,0.22,0.931,0.43,1.475,0.63
			c0.554,0.191,1.117,0.401,1.69,0.63c0.582,0.22,1.146,0.473,1.69,0.759c0.554,0.286,1.046,0.635,1.475,1.046
			c0.439,0.411,0.788,0.898,1.046,1.461C85.53,148.291,85.663,148.95,85.663,149.714L85.663,149.714z"/>
		<path id="path57" style="fill:#FFFFFF;" d="M101.59,154.641c-0.831,0.334-1.638,0.582-2.421,0.745
			c-0.773,0.162-1.58,0.243-2.421,0.243c-1.346,0-2.54-0.196-3.581-0.587c-1.031-0.401-1.905-0.993-2.621-1.776
			c-0.707-0.783-1.246-1.752-1.618-2.908c-0.363-1.165-0.544-2.516-0.544-4.053c0-1.576,0.201-2.974,0.602-4.197
			c0.401-1.232,0.974-2.268,1.719-3.108c0.745-0.85,1.647-1.494,2.707-1.934c1.069-0.449,2.268-0.673,3.595-0.673
			c0.43,0,0.831,0.01,1.203,0.029c0.382,0.019,0.754,0.057,1.117,0.115c0.363,0.048,0.73,0.115,1.103,0.201
			c0.372,0.086,0.759,0.196,1.16,0.329v3.495c-0.812-0.382-1.585-0.654-2.32-0.816c-0.735-0.162-1.404-0.243-2.005-0.243
			c-0.888,0-1.647,0.162-2.277,0.487c-0.63,0.315-1.151,0.764-1.561,1.346c-0.401,0.573-0.697,1.26-0.888,2.062
			c-0.191,0.793-0.286,1.666-0.286,2.621c0,1.012,0.095,1.919,0.286,2.721c0.201,0.793,0.506,1.466,0.917,2.02
			c0.411,0.554,0.936,0.979,1.576,1.275c0.64,0.286,1.399,0.43,2.277,0.43c0.315,0,0.654-0.029,1.017-0.086
			c0.372-0.067,0.745-0.148,1.117-0.243c0.382-0.105,0.754-0.224,1.117-0.358c0.372-0.143,0.716-0.286,1.031-0.43L101.59,154.641z"
			/>
		<path id="path59" style="fill:#FFFFFF;" d="M105.515,139.53v-2.879h11.831v2.879h-4.125v12.934h4.125v2.908h-11.831v-2.908h4.125
			V139.53H105.515z"/>
		<path id="path61" style="fill:#FFFFFF;" d="M85.434,178.831c-0.831,0.334-1.638,0.582-2.421,0.745
			c-0.773,0.162-1.58,0.243-2.421,0.243c-1.346,0-2.54-0.196-3.581-0.587c-1.031-0.401-1.905-0.993-2.621-1.776
			c-0.707-0.783-1.246-1.752-1.618-2.908c-0.363-1.165-0.544-2.516-0.544-4.053c0-1.576,0.201-2.974,0.602-4.197
			c0.401-1.232,0.974-2.268,1.719-3.108c0.745-0.85,1.647-1.494,2.707-1.934c1.069-0.449,2.268-0.673,3.595-0.673
			c0.43,0,0.831,0.01,1.203,0.029c0.382,0.019,0.754,0.057,1.117,0.115c0.363,0.048,0.73,0.115,1.103,0.201s0.759,0.196,1.16,0.329
			v3.495c-0.812-0.382-1.585-0.654-2.32-0.816s-1.404-0.243-2.005-0.243c-0.888,0-1.647,0.162-2.277,0.487
			c-0.63,0.315-1.151,0.764-1.561,1.346c-0.401,0.573-0.697,1.26-0.888,2.062c-0.191,0.793-0.286,1.666-0.286,2.621
			c0,1.012,0.095,1.919,0.286,2.721c0.201,0.793,0.506,1.466,0.917,2.02s0.936,0.979,1.576,1.275c0.64,0.286,1.399,0.43,2.277,0.43
			c0.315,0,0.654-0.029,1.017-0.086c0.372-0.067,0.745-0.148,1.117-0.243c0.382-0.105,0.754-0.224,1.117-0.358
			c0.372-0.143,0.716-0.286,1.031-0.43L85.434,178.831z"/>
		<path id="path63" style="fill:#FFFFFF;" d="M102.808,170.122c0,1.7-0.201,3.165-0.602,4.397c-0.391,1.232-0.936,2.244-1.633,3.036
			c-0.688,0.793-1.499,1.38-2.435,1.762c-0.926,0.382-1.919,0.573-2.979,0.573c-2.464,0-4.316-0.816-5.557-2.449
			c-1.241-1.642-1.862-4.025-1.862-7.147c0-1.7,0.196-3.165,0.587-4.397c0.401-1.232,0.945-2.244,1.633-3.036
			c0.697-0.793,1.509-1.38,2.435-1.762c0.936-0.382,1.934-0.573,2.993-0.573c2.464,0,4.316,0.816,5.557,2.449
			C102.187,164.608,102.808,166.99,102.808,170.122z M99.084,170.294c0-2.215-0.296-3.867-0.888-4.956
			c-0.592-1.089-1.566-1.633-2.922-1.633c-0.678,0-1.256,0.143-1.733,0.43c-0.477,0.277-0.874,0.688-1.189,1.232
			c-0.306,0.544-0.53,1.217-0.673,2.02c-0.143,0.793-0.215,1.704-0.215,2.736c0,2.215,0.296,3.867,0.888,4.956
			c0.602,1.089,1.576,1.633,2.922,1.633c0.678,0,1.256-0.138,1.733-0.415c0.487-0.286,0.883-0.702,1.189-1.246
			s0.53-1.213,0.673-2.005C99.012,172.242,99.084,171.326,99.084,170.294L99.084,170.294z"/>
		<path id="path65" style="fill:#FFFFFF;" d="M115.741,179.561l-0.344-10.585l-0.129-4.225l-0.902,2.865l-2.077,6.374h-2.206
			l-1.876-6.374l-0.788-2.865l-0.1,4.139l-0.315,10.671h-2.993l0.917-18.72h3.982l1.647,5.314l0.788,2.993l0.788-2.822l1.733-5.486
			h4.053l0.931,18.72L115.741,179.561z"/>
	</g>
	<g style="enable-background:new    ;">
		<path style="fill:#FFFFFF;" d="M26.033,138.226v3.541c0,0.373,0,0.498,0,0.373c0.628-0.061,1.571-0.123,2.829-0.187
			c1.194-0.062,2.106-0.093,2.735-0.093v2.889c-0.44,0-1.131-0.03-2.075-0.093c-0.881-0.062-1.572-0.093-2.075-0.093h-1.509
			c-0.127,2.548-0.504,4.691-1.132,6.43c-0.943,2.362-2.704,4.474-5.281,6.338c-0.063,0.123-0.157,0.123-0.283,0
			c-0.252-0.187-0.692-0.498-1.32-0.932c-0.315-0.126-0.566-0.25-0.754-0.373v-0.187c3.772-2.857,5.814-6.058,6.13-9.6
			c0-0.187,0.031-0.466,0.094-0.839c0-0.373,0.031-0.652,0.094-0.838h-5.564v6.15h-2.923c0.125-1.491,0.188-3.043,0.188-4.66v-1.49
			h-1.32c-0.504,0-1.258,0.031-2.263,0.093c-1.006,0.062-1.761,0.093-2.264,0.093v-2.982c0.439,0,1.068,0.062,1.886,0.187
			c1.194,0.126,2.106,0.187,2.735,0.187h1.226v-2.889c0-0.311-0.063-0.84-0.188-1.585c-0.063-0.372-0.094-0.652-0.094-0.839
			c1.131,0.062,2.2,0.156,3.206,0.279c0,0.126-0.032,0.312-0.094,0.56c-0.063,0.249-0.094,0.466-0.094,0.652v3.821h5.658v-0.373
			c0-0.745-0.094-1.895-0.283-3.448c-0.127-0.807-0.221-1.397-0.283-1.771c1.131,0.062,2.2,0.156,3.206,0.279
			c0.062,0.187,0.031,0.467-0.094,0.839C26.063,137.915,26.033,138.102,26.033,138.226z"/>
		<path style="fill:#FFFFFF;" d="M50.458,136.175h0.377l2.641,2.424v0.186c-0.943,0.373-2.107,1.305-3.489,2.797
			c-0.377,0.372-0.66,0.652-0.849,0.838c-0.063,0.062-0.221,0.187-0.472,0.373c-0.188,0.187-0.346,0.342-0.472,0.467v4.1
			c0,1.367,0.062,3.388,0.188,6.059c0.125,1.678,0.189,2.949,0.189,3.82h-3.207c0.062-0.994,0.094-2.082,0.094-3.262
			c0-1.056,0-2.609,0-4.66v-3.914c-2.013,1.491-4.527,3.076-7.544,4.754c-0.127,0.062-0.188,0.062-0.188,0l-1.98-1.865v-0.186
			c2.702-1.242,5.187-2.764,7.45-4.566C46.717,141.114,49.138,138.661,50.458,136.175z"/>
	</g>
	<g style="enable-background:new    ;">
	</g>
	<g style="enable-background:new    ;">
		<path style="fill:#FFFFFF;" d="M15.188,162.001h6.696c2.075,0,4.117-0.031,6.13-0.094v9.133c0,0.746,0.031,1.834,0.094,3.262
			c0,1.368,0,2.393,0,3.076h-2.829v-0.932c-3.145,0-5.533,0-7.167,0c-1.949,0-3.71,0.031-5.281,0.093v-2.89
			c1.131,0.063,2.357,0.094,3.678,0.094h3.112c1.886,0,3.772-0.03,5.658-0.094v-8.854h-7.262c-0.566,0-1.415,0-2.546,0
			c-1.195,0.062-2.075,0.094-2.64,0.094v-3.076C13.646,161.94,14.433,162.001,15.188,162.001z"/>
		<path style="fill:#FFFFFF;" d="M42.631,160.323h0.283c1.194,0.311,2.358,0.745,3.489,1.305v0.279l-0.565,0.466
			c-0.377,0.187-0.693,0.685-0.943,1.491c-0.126,0.373-0.221,0.622-0.283,0.746c-1.447,3.728-2.893,6.803-4.338,9.227h0.095
			c0.313,0,0.565-0.031,0.754-0.094c2.954-0.187,5.847-0.559,8.676-1.118c-0.126-0.124-0.283-0.311-0.471-0.56
			c-0.881-1.305-1.636-2.236-2.264-2.796v-0.187l1.792-1.397h0.188c1.823,1.554,3.961,3.977,6.413,7.269v0.188l-1.698,1.678
			c-0.063,0-0.126,0.062-0.188,0.186c-0.315,0.187-0.535,0.279-0.66,0.279c-0.188-0.31-0.504-0.775-0.943-1.397
			c-0.252-0.497-0.472-0.869-0.66-1.118h-0.094c-2.641,0.498-6.602,1.118-11.883,1.863c-1.006,0.126-1.761,0.219-2.263,0.28
			c-0.063,0-0.221,0.032-0.472,0.093c-0.188,0.062-0.346,0.125-0.472,0.187c-0.063,0.063-0.188,0.126-0.377,0.187
			c-0.127,0-0.252,0.031-0.377,0.094l-0.094,0.093c-0.126,0.187-0.283,0.247-0.472,0.187l-1.037-3.262l0.094-0.28h0.472
			c1.005,0,1.98-0.03,2.923-0.093h0.094C40.304,168.587,42.065,163.989,42.631,160.323z"/>
	</g>
	<rect id="svg_47" x="129.348" y="128.761" style="fill:none;" width="54.401" height="58.343"/>
	<g style="enable-background:new    ;">
		<path style="fill:#EFE6E6;" d="M137.83,138.849c0,0.939-0.284,1.662-0.853,2.166c-0.567,0.504-1.401,0.756-2.497,0.756
			c-0.958,0-1.828-0.174-2.611-0.523l0.41-0.952c0.666,0.286,1.4,0.429,2.201,0.429c0.693,0,1.195-0.158,1.506-0.477
			c0.312-0.316,0.467-0.812,0.467-1.486v-7.443h1.377V138.849z"/>
		<path style="fill:#EFE6E6;" d="M149.645,141.574h-1.303c-0.105-0.306-0.158-0.712-0.158-1.222
			c-0.745,0.945-1.758,1.418-3.04,1.418c-0.649,0-1.222-0.199-1.718-0.6c-0.495-0.4-0.742-0.914-0.742-1.545
			c0-0.373,0.086-0.703,0.26-0.988c0.174-0.286,0.428-0.527,0.764-0.724s0.745-0.351,1.227-0.465s1.053-0.192,1.713-0.236
			l1.469-0.103v-0.363c0-1.299-0.699-1.947-2.099-1.947c-0.331,0-0.749,0.062-1.255,0.186c-0.507,0.123-0.942,0.27-1.307,0.439
			l-0.344-0.814c1.192-0.527,2.301-0.793,3.325-0.793c1.993,0,2.989,0.914,2.989,2.741v3.257
			C149.426,140.474,149.498,141.061,149.645,141.574z M148.115,139.328v-1.374c-1.181,0.092-1.99,0.178-2.43,0.258
			s-0.82,0.229-1.143,0.447c-0.322,0.219-0.482,0.514-0.482,0.887c0,0.34,0.137,0.613,0.411,0.822
			c0.274,0.208,0.624,0.312,1.05,0.312c0.465,0,0.926-0.121,1.385-0.36S147.769,139.749,148.115,139.328z"/>
		<path style="fill:#EFE6E6;" d="M154.312,134.982c0.291-0.35,0.684-0.631,1.18-0.844c0.495-0.213,1.018-0.32,1.566-0.32
			c1.007,0,1.798,0.36,2.371,1.08c0.574,0.72,0.861,1.656,0.861,2.81c0,1.163-0.301,2.132-0.902,2.903
			c-0.603,0.773-1.412,1.16-2.432,1.16c-0.543,0-1.051-0.117-1.523-0.353s-0.848-0.546-1.121-0.935v4.086h-1.311V134h1.311V134.982z
			 M154.312,136.109v3.146c0.246,0.427,0.579,0.783,0.999,1.068c0.42,0.287,0.854,0.43,1.302,0.43c0.705,0,1.266-0.286,1.684-0.857
			c0.416-0.572,0.625-1.282,0.625-2.131c0-0.871-0.199-1.584-0.596-2.137c-0.398-0.553-0.952-0.828-1.662-0.828
			C155.74,134.8,154.956,135.235,154.312,136.109z"/>
		<path style="fill:#EFE6E6;" d="M170.283,141.574h-1.303c-0.105-0.306-0.158-0.712-0.158-1.222
			c-0.745,0.945-1.758,1.418-3.04,1.418c-0.649,0-1.222-0.199-1.718-0.6c-0.495-0.4-0.742-0.914-0.742-1.545
			c0-0.373,0.086-0.703,0.26-0.988c0.174-0.286,0.428-0.527,0.764-0.724s0.745-0.351,1.227-0.465s1.053-0.192,1.713-0.236
			l1.469-0.103v-0.363c0-1.299-0.699-1.947-2.099-1.947c-0.331,0-0.749,0.062-1.255,0.186c-0.507,0.123-0.942,0.27-1.307,0.439
			l-0.344-0.814c1.192-0.527,2.301-0.793,3.325-0.793c1.993,0,2.989,0.914,2.989,2.741v3.257
			C170.064,140.474,170.137,141.061,170.283,141.574z M168.754,139.328v-1.374c-1.181,0.092-1.99,0.178-2.43,0.258
			s-0.82,0.229-1.143,0.447c-0.322,0.219-0.482,0.514-0.482,0.887c0,0.34,0.137,0.613,0.411,0.822
			c0.274,0.208,0.624,0.312,1.05,0.312c0.465,0,0.926-0.121,1.385-0.36S168.407,139.749,168.754,139.328z"/>
		<path style="fill:#EFE6E6;" d="M180.384,141.574h-1.31v-4.856c0-0.673-0.125-1.161-0.374-1.464s-0.64-0.454-1.171-0.454
			c-0.801,0-1.66,0.432-2.578,1.293v5.481h-1.311V134h1.311v1.112c0.94-0.863,1.932-1.295,2.973-1.295c1.64,0,2.46,0.858,2.46,2.574
			V141.574z"/>
	</g>
	<g style="enable-background:new    ;">
		<path style="fill:none;stroke:#EFE6E6;stroke-width:0.5374;stroke-miterlimit:10;" d="M137.83,138.849
			c0,0.939-0.284,1.662-0.853,2.166c-0.567,0.504-1.401,0.756-2.497,0.756c-0.958,0-1.828-0.174-2.611-0.523l0.41-0.952
			c0.666,0.286,1.4,0.429,2.201,0.429c0.693,0,1.195-0.158,1.506-0.477c0.312-0.316,0.467-0.812,0.467-1.486v-7.443h1.377V138.849z"
			/>
		<path style="fill:none;stroke:#EFE6E6;stroke-width:0.5374;stroke-miterlimit:10;" d="M149.645,141.574h-1.303
			c-0.105-0.306-0.158-0.712-0.158-1.222c-0.745,0.945-1.758,1.418-3.04,1.418c-0.649,0-1.222-0.199-1.718-0.6
			c-0.495-0.4-0.742-0.914-0.742-1.545c0-0.373,0.086-0.703,0.26-0.988c0.174-0.286,0.428-0.527,0.764-0.724
			s0.745-0.351,1.227-0.465s1.053-0.192,1.713-0.236l1.469-0.103v-0.363c0-1.299-0.699-1.947-2.099-1.947
			c-0.331,0-0.749,0.062-1.255,0.186c-0.507,0.123-0.942,0.27-1.307,0.439l-0.344-0.814c1.192-0.527,2.301-0.793,3.325-0.793
			c1.993,0,2.989,0.914,2.989,2.741v3.257C149.426,140.474,149.498,141.061,149.645,141.574z M148.115,139.328v-1.374
			c-1.181,0.092-1.99,0.178-2.43,0.258s-0.82,0.229-1.143,0.447c-0.322,0.219-0.482,0.514-0.482,0.887
			c0,0.34,0.137,0.613,0.411,0.822c0.274,0.208,0.624,0.312,1.05,0.312c0.465,0,0.926-0.121,1.385-0.36
			S147.769,139.749,148.115,139.328z"/>
		<path style="fill:none;stroke:#EFE6E6;stroke-width:0.5374;stroke-miterlimit:10;" d="M154.312,134.982
			c0.291-0.35,0.684-0.631,1.18-0.844c0.495-0.213,1.018-0.32,1.566-0.32c1.007,0,1.798,0.36,2.371,1.08
			c0.574,0.72,0.861,1.656,0.861,2.81c0,1.163-0.301,2.132-0.902,2.903c-0.603,0.773-1.412,1.16-2.432,1.16
			c-0.543,0-1.051-0.117-1.523-0.353s-0.848-0.546-1.121-0.935v4.086h-1.311V134h1.311V134.982z M154.312,136.109v3.146
			c0.246,0.427,0.579,0.783,0.999,1.068c0.42,0.287,0.854,0.43,1.302,0.43c0.705,0,1.266-0.286,1.684-0.857
			c0.416-0.572,0.625-1.282,0.625-2.131c0-0.871-0.199-1.584-0.596-2.137c-0.398-0.553-0.952-0.828-1.662-0.828
			C155.74,134.8,154.956,135.235,154.312,136.109z"/>
		<path style="fill:none;stroke:#EFE6E6;stroke-width:0.5374;stroke-miterlimit:10;" d="M170.283,141.574h-1.303
			c-0.105-0.306-0.158-0.712-0.158-1.222c-0.745,0.945-1.758,1.418-3.04,1.418c-0.649,0-1.222-0.199-1.718-0.6
			c-0.495-0.4-0.742-0.914-0.742-1.545c0-0.373,0.086-0.703,0.26-0.988c0.174-0.286,0.428-0.527,0.764-0.724
			s0.745-0.351,1.227-0.465s1.053-0.192,1.713-0.236l1.469-0.103v-0.363c0-1.299-0.699-1.947-2.099-1.947
			c-0.331,0-0.749,0.062-1.255,0.186c-0.507,0.123-0.942,0.27-1.307,0.439l-0.344-0.814c1.192-0.527,2.301-0.793,3.325-0.793
			c1.993,0,2.989,0.914,2.989,2.741v3.257C170.064,140.474,170.137,141.061,170.283,141.574z M168.754,139.328v-1.374
			c-1.181,0.092-1.99,0.178-2.43,0.258s-0.82,0.229-1.143,0.447c-0.322,0.219-0.482,0.514-0.482,0.887
			c0,0.34,0.137,0.613,0.411,0.822c0.274,0.208,0.624,0.312,1.05,0.312c0.465,0,0.926-0.121,1.385-0.36
			S168.407,139.749,168.754,139.328z"/>
		<path style="fill:none;stroke:#EFE6E6;stroke-width:0.5374;stroke-miterlimit:10;" d="M180.384,141.574h-1.31v-4.856
			c0-0.673-0.125-1.161-0.374-1.464s-0.64-0.454-1.171-0.454c-0.801,0-1.66,0.432-2.578,1.293v5.481h-1.311V134h1.311v1.112
			c0.94-0.863,1.932-1.295,2.973-1.295c1.64,0,2.46,0.858,2.46,2.574V141.574z"/>
	</g>
	<g style="enable-background:new    ;">
	</g>
	<g style="enable-background:new    ;">
		<path style="fill:#EFE6E6;" d="M138.988,152.068h-4.903v3.352h4.468v1.039h-4.468v4.826h-1.377v-10.256h6.28V152.068z"/>
		<path style="fill:#EFE6E6;" d="M146.033,153.528c1.203,0,2.16,0.363,2.871,1.091c0.711,0.727,1.066,1.684,1.066,2.871
			c0,1.196-0.355,2.161-1.066,2.894c-0.711,0.731-1.668,1.098-2.871,1.098c-1.209,0-2.168-0.365-2.875-1.095
			c-0.709-0.729-1.062-1.694-1.062-2.896c0-1.192,0.355-2.15,1.066-2.875S144.83,153.528,146.033,153.528z M146.033,160.492
			c0.795,0,1.422-0.29,1.881-0.872s0.688-1.287,0.688-2.115c0-0.873-0.227-1.59-0.68-2.152c-0.454-0.562-1.083-0.843-1.89-0.843
			c-0.812,0-1.441,0.277-1.889,0.833c-0.448,0.555-0.672,1.275-0.672,2.162c0,0.844,0.227,1.552,0.68,2.126
			S145.232,160.492,146.033,160.492z"/>
		<path style="fill:#EFE6E6;" d="M159.879,153.913l-0.529,1.092c-0.576-0.219-1.074-0.328-1.494-0.328
			c-0.387,0-0.764,0.096-1.133,0.287c-0.37,0.191-0.71,0.465-1.021,0.822c-0.312,0.355-0.466,0.556-0.466,0.6v4.898h-1.302v-7.574
			h1.302v1.534c0.699-1.144,1.605-1.716,2.721-1.716C158.617,153.528,159.258,153.657,159.879,153.913z"/>
		<path style="fill:#EFE6E6;" d="M170.047,161.284h-1.309v-1.119c-0.941,0.867-1.932,1.301-2.973,1.301
			c-1.641,0-2.461-0.859-2.461-2.58v-5.176h1.311v4.849c0,0.645,0.117,1.126,0.353,1.442c0.235,0.318,0.632,0.477,1.192,0.477
			c0.801,0,1.659-0.432,2.578-1.293v-5.475h1.309V161.284z"/>
		<path style="fill:#EFE6E6;" d="M181.072,161.284h-1.311v-4.972c0-1.202-0.257-1.803-0.771-1.803c-0.264,0-0.553,0.208-0.869,0.622
			s-0.475,0.643-0.475,0.687v5.466h-1.302v-4.972c0-1.202-0.261-1.803-0.78-1.803c-0.258,0-0.545,0.208-0.861,0.622
			s-0.475,0.643-0.475,0.687v5.466h-1.31v-7.574h1.26v1.142c0.246-0.402,0.538-0.724,0.878-0.964
			c0.338-0.239,0.676-0.359,1.012-0.359c0.352,0,0.668,0.12,0.948,0.359c0.28,0.24,0.474,0.562,0.579,0.964
			c0.246-0.402,0.541-0.724,0.882-0.964c0.341-0.239,0.677-0.359,1.008-0.359c1.058,0,1.587,0.819,1.587,2.457V161.284z"/>
	</g>
	<g style="enable-background:new    ;">
		<path style="fill:none;stroke:#EFE6E6;stroke-width:0.5374;stroke-miterlimit:10;" d="M138.988,152.068h-4.903v3.352h4.468v1.039
			h-4.468v4.826h-1.377v-10.256h6.28V152.068z"/>
		<path style="fill:none;stroke:#EFE6E6;stroke-width:0.5374;stroke-miterlimit:10;" d="M146.033,153.528
			c1.203,0,2.16,0.363,2.871,1.091c0.711,0.727,1.066,1.684,1.066,2.871c0,1.196-0.355,2.161-1.066,2.894
			c-0.711,0.731-1.668,1.098-2.871,1.098c-1.209,0-2.168-0.365-2.875-1.095c-0.709-0.729-1.062-1.694-1.062-2.896
			c0-1.192,0.355-2.15,1.066-2.875S144.83,153.528,146.033,153.528z M146.033,160.492c0.795,0,1.422-0.29,1.881-0.872
			s0.688-1.287,0.688-2.115c0-0.873-0.227-1.59-0.68-2.152c-0.454-0.562-1.083-0.843-1.89-0.843c-0.812,0-1.441,0.277-1.889,0.833
			c-0.448,0.555-0.672,1.275-0.672,2.162c0,0.844,0.227,1.552,0.68,2.126S145.232,160.492,146.033,160.492z"/>
		<path style="fill:none;stroke:#EFE6E6;stroke-width:0.5374;stroke-miterlimit:10;" d="M159.879,153.913l-0.529,1.092
			c-0.576-0.219-1.074-0.328-1.494-0.328c-0.387,0-0.764,0.096-1.133,0.287c-0.37,0.191-0.71,0.465-1.021,0.822
			c-0.312,0.355-0.466,0.556-0.466,0.6v4.898h-1.302v-7.574h1.302v1.534c0.699-1.144,1.605-1.716,2.721-1.716
			C158.617,153.528,159.258,153.657,159.879,153.913z"/>
		<path style="fill:none;stroke:#EFE6E6;stroke-width:0.5374;stroke-miterlimit:10;" d="M170.047,161.284h-1.309v-1.119
			c-0.941,0.867-1.932,1.301-2.973,1.301c-1.641,0-2.461-0.859-2.461-2.58v-5.176h1.311v4.849c0,0.645,0.117,1.126,0.353,1.442
			c0.235,0.318,0.632,0.477,1.192,0.477c0.801,0,1.659-0.432,2.578-1.293v-5.475h1.309V161.284z"/>
		<path style="fill:none;stroke:#EFE6E6;stroke-width:0.5374;stroke-miterlimit:10;" d="M181.072,161.284h-1.311v-4.972
			c0-1.202-0.257-1.803-0.771-1.803c-0.264,0-0.553,0.208-0.869,0.622s-0.475,0.643-0.475,0.687v5.466h-1.302v-4.972
			c0-1.202-0.261-1.803-0.78-1.803c-0.258,0-0.545,0.208-0.861,0.622s-0.475,0.643-0.475,0.687v5.466h-1.31v-7.574h1.26v1.142
			c0.246-0.402,0.538-0.724,0.878-0.964c0.338-0.239,0.676-0.359,1.012-0.359c0.352,0,0.668,0.12,0.948,0.359
			c0.28,0.24,0.474,0.562,0.579,0.964c0.246-0.402,0.541-0.724,0.882-0.964c0.341-0.239,0.677-0.359,1.008-0.359
			c1.058,0,1.587,0.819,1.587,2.457V161.284z"/>
	</g>
	<g style="enable-background:new    ;">
	</g>
	<g style="enable-background:new    ;">
		<path style="fill:#EFE6E6;" d="M143.805,181.39h-6.516v-0.865c1.651-1.594,2.723-2.662,3.216-3.205s0.894-1.113,1.2-1.709
			c0.309-0.596,0.463-1.189,0.463-1.781c0-0.571-0.201-1.021-0.601-1.352c-0.4-0.329-0.962-0.494-1.684-0.494
			c-0.554,0-1.299,0.148-2.233,0.443l-0.193-1.025c0.846-0.31,1.73-0.465,2.653-0.465c1.058,0,1.91,0.258,2.557,0.774
			s0.97,1.206,0.97,2.067c0,0.616-0.166,1.227-0.5,1.832c-0.332,0.606-0.76,1.188-1.279,1.745c-0.521,0.558-1.534,1.556-3.04,2.995
			h4.987V181.39z"/>
		<path style="fill:#EFE6E6;" d="M151.025,170.937c1.254,0,2.219,0.467,2.893,1.399c0.675,0.933,1.012,2.243,1.012,3.929
			c0,1.633-0.326,2.929-0.982,3.886c-0.654,0.957-1.629,1.436-2.922,1.436c-1.248,0-2.211-0.466-2.888-1.396
			c-0.678-0.931-1.017-2.239-1.017-3.926c0-1.638,0.329-2.936,0.986-3.893C148.766,171.415,149.738,170.937,151.025,170.937z
			 M151.025,180.539c0.829,0,1.443-0.341,1.844-1.021c0.4-0.682,0.6-1.766,0.6-3.254c0-1.492-0.199-2.576-0.6-3.252
			c-0.4-0.677-1.015-1.015-1.844-1.015c-0.816,0-1.427,0.347-1.83,1.04c-0.402,0.692-0.604,1.768-0.604,3.227
			c0,1.479,0.2,2.561,0.601,3.246S150.203,180.539,151.025,180.539z M150.992,175.175c0.353,0,0.65,0.105,0.895,0.316
			c0.243,0.211,0.365,0.469,0.365,0.773c0,0.315-0.123,0.586-0.369,0.811c-0.247,0.226-0.543,0.338-0.891,0.338
			c-0.342,0-0.634-0.112-0.877-0.338c-0.244-0.225-0.365-0.495-0.365-0.811c0-0.31,0.119-0.568,0.356-0.777
			S150.64,175.175,150.992,175.175z"/>
		<path style="fill:#EFE6E6;" d="M164.443,181.39h-6.516v-0.865c1.651-1.594,2.723-2.662,3.216-3.205s0.894-1.113,1.2-1.709
			c0.309-0.596,0.463-1.189,0.463-1.781c0-0.571-0.201-1.021-0.601-1.352c-0.4-0.329-0.962-0.494-1.684-0.494
			c-0.554,0-1.299,0.148-2.233,0.443l-0.193-1.025c0.846-0.31,1.73-0.465,2.653-0.465c1.058,0,1.91,0.258,2.557,0.774
			s0.97,1.206,0.97,2.067c0,0.616-0.166,1.227-0.5,1.832c-0.332,0.606-0.76,1.188-1.279,1.745c-0.521,0.558-1.534,1.556-3.04,2.995
			h4.987V181.39z"/>
		<path style="fill:#EFE6E6;" d="M171.664,170.937c1.254,0,2.219,0.467,2.893,1.399c0.675,0.933,1.012,2.243,1.012,3.929
			c0,1.633-0.326,2.929-0.982,3.886c-0.654,0.957-1.629,1.436-2.922,1.436c-1.248,0-2.211-0.466-2.888-1.396
			c-0.678-0.931-1.017-2.239-1.017-3.926c0-1.638,0.329-2.936,0.986-3.893C169.404,171.415,170.377,170.937,171.664,170.937z
			 M171.664,180.539c0.829,0,1.443-0.341,1.844-1.021c0.4-0.682,0.6-1.766,0.6-3.254c0-1.492-0.199-2.576-0.6-3.252
			c-0.4-0.677-1.015-1.015-1.844-1.015c-0.816,0-1.427,0.347-1.83,1.04c-0.402,0.692-0.604,1.768-0.604,3.227
			c0,1.479,0.2,2.561,0.601,3.246S170.842,180.539,171.664,180.539z M171.631,175.175c0.353,0,0.65,0.105,0.895,0.316
			c0.243,0.211,0.365,0.469,0.365,0.773c0,0.315-0.123,0.586-0.369,0.811c-0.247,0.226-0.543,0.338-0.891,0.338
			c-0.342,0-0.634-0.112-0.877-0.338c-0.244-0.225-0.365-0.495-0.365-0.811c0-0.31,0.119-0.568,0.356-0.777
			S171.278,175.175,171.631,175.175z"/>
	</g>
	<g style="enable-background:new    ;">
		<path style="fill:none;stroke:#EFE6E6;stroke-width:0.5374;stroke-miterlimit:10;" d="M143.805,181.39h-6.516v-0.865
			c1.651-1.594,2.723-2.662,3.216-3.205s0.894-1.113,1.2-1.709c0.309-0.596,0.463-1.189,0.463-1.781
			c0-0.571-0.201-1.021-0.601-1.352c-0.4-0.329-0.962-0.494-1.684-0.494c-0.554,0-1.299,0.148-2.233,0.443l-0.193-1.025
			c0.846-0.31,1.73-0.465,2.653-0.465c1.058,0,1.91,0.258,2.557,0.774s0.97,1.206,0.97,2.067c0,0.616-0.166,1.227-0.5,1.832
			c-0.332,0.606-0.76,1.188-1.279,1.745c-0.521,0.558-1.534,1.556-3.04,2.995h4.987V181.39z"/>
		<path style="fill:none;stroke:#EFE6E6;stroke-width:0.5374;stroke-miterlimit:10;" d="M151.025,170.937
			c1.254,0,2.219,0.467,2.893,1.399c0.675,0.933,1.012,2.243,1.012,3.929c0,1.633-0.326,2.929-0.982,3.886
			c-0.654,0.957-1.629,1.436-2.922,1.436c-1.248,0-2.211-0.466-2.888-1.396c-0.678-0.931-1.017-2.239-1.017-3.926
			c0-1.638,0.329-2.936,0.986-3.893C148.766,171.415,149.738,170.937,151.025,170.937z M151.025,180.539
			c0.829,0,1.443-0.341,1.844-1.021c0.4-0.682,0.6-1.766,0.6-3.254c0-1.492-0.199-2.576-0.6-3.252
			c-0.4-0.677-1.015-1.015-1.844-1.015c-0.816,0-1.427,0.347-1.83,1.04c-0.402,0.692-0.604,1.768-0.604,3.227
			c0,1.479,0.2,2.561,0.601,3.246S150.203,180.539,151.025,180.539z M150.992,175.175c0.353,0,0.65,0.105,0.895,0.316
			c0.243,0.211,0.365,0.469,0.365,0.773c0,0.315-0.123,0.586-0.369,0.811c-0.247,0.226-0.543,0.338-0.891,0.338
			c-0.342,0-0.634-0.112-0.877-0.338c-0.244-0.225-0.365-0.495-0.365-0.811c0-0.31,0.119-0.568,0.356-0.777
			S150.64,175.175,150.992,175.175z"/>
		<path style="fill:none;stroke:#EFE6E6;stroke-width:0.5374;stroke-miterlimit:10;" d="M164.443,181.39h-6.516v-0.865
			c1.651-1.594,2.723-2.662,3.216-3.205s0.894-1.113,1.2-1.709c0.309-0.596,0.463-1.189,0.463-1.781
			c0-0.571-0.201-1.021-0.601-1.352c-0.4-0.329-0.962-0.494-1.684-0.494c-0.554,0-1.299,0.148-2.233,0.443l-0.193-1.025
			c0.846-0.31,1.73-0.465,2.653-0.465c1.058,0,1.91,0.258,2.557,0.774s0.97,1.206,0.97,2.067c0,0.616-0.166,1.227-0.5,1.832
			c-0.332,0.606-0.76,1.188-1.279,1.745c-0.521,0.558-1.534,1.556-3.04,2.995h4.987V181.39z"/>
		<path style="fill:none;stroke:#EFE6E6;stroke-width:0.5374;stroke-miterlimit:10;" d="M171.664,170.937
			c1.254,0,2.219,0.467,2.893,1.399c0.675,0.933,1.012,2.243,1.012,3.929c0,1.633-0.326,2.929-0.982,3.886
			c-0.654,0.957-1.629,1.436-2.922,1.436c-1.248,0-2.211-0.466-2.888-1.396c-0.678-0.931-1.017-2.239-1.017-3.926
			c0-1.638,0.329-2.936,0.986-3.893C169.404,171.415,170.377,170.937,171.664,170.937z M171.664,180.539
			c0.829,0,1.443-0.341,1.844-1.021c0.4-0.682,0.6-1.766,0.6-3.254c0-1.492-0.199-2.576-0.6-3.252
			c-0.4-0.677-1.015-1.015-1.844-1.015c-0.816,0-1.427,0.347-1.83,1.04c-0.402,0.692-0.604,1.768-0.604,3.227
			c0,1.479,0.2,2.561,0.601,3.246S170.842,180.539,171.664,180.539z M171.631,175.175c0.353,0,0.65,0.105,0.895,0.316
			c0.243,0.211,0.365,0.469,0.365,0.773c0,0.315-0.123,0.586-0.369,0.811c-0.247,0.226-0.543,0.338-0.891,0.338
			c-0.342,0-0.634-0.112-0.877-0.338c-0.244-0.225-0.365-0.495-0.365-0.811c0-0.31,0.119-0.568,0.356-0.777
			S171.278,175.175,171.631,175.175z"/>
	</g>
</g>
</svg>
