<?xml version="1.0" encoding="utf-8"?>
<!-- Generator: Adobe Illustrator 19.1.0, SVG Export Plug-In . SVG Version: 6.00 Build 0)  -->
<svg version="1.1"
	 id="svg3469" xmlns:dc="http://purl.org/dc/elements/1.1/" xmlns:cc="http://creativecommons.org/ns#" xmlns:svg="http://www.w3.org/2000/svg" xmlns:rdf="http://www.w3.org/1999/02/22-rdf-syntax-ns#"
	 xmlns="http://www.w3.org/2000/svg" xmlns:xlink="http://www.w3.org/1999/xlink" x="0px" y="0px" viewBox="-574 257 185 188"
	 style="enable-background:new -574 257 185 188;" xml:space="preserve">
<style type="text/css">
	.st0{fill:none;}
	.st1{fill:#FFFFFF;}
	.st2{enable-background:new    ;}
	.st3{fill:#656565;stroke:#656565;stroke-width:0.25;stroke-miterlimit:10;}
	.st4{font-family:'Ayuthaya';}
	.st5{font-size:4px;}
</style>
<path class="st0" d="z"/>
<image style="overflow:visible;enable-background:new    ;" width="762" height="775" id="image3477" xlink:href="5CCB11095DF73949.png"  transform="matrix(5.895020e-02 0 0 5.895020e-02 -574 256.792)">
</image>
<rect x="-542.7" y="257" class="st0" width="14" height="45.5"/>
<rect x="-542.7" y="257" class="st1" width="14.5" height="45.4"/>
<rect x="-542.2" y="258.5" class="st0" width="14.8" height="13.5"/>
<text transform="matrix(1 0 0 1 -540.8055 261.9629)" class="st2"><tspan x="0" y="0" class="st3 st4 st5">Japan</tspan><tspan x="0" y="4.8" class="st3 st4 st5">Forum</tspan><tspan x="1.2" y="9.6" class="st3 st4 st5">2019</tspan></text>
<rect x="-542.2" y="273" class="st0" width="14.8" height="13.8"/>
<text transform="matrix(1 0 0 1 -540.8055 276.4629)" class="st2"><tspan x="0" y="0" class="st3 st4 st5">Japan</tspan><tspan x="0" y="4.8" class="st3 st4 st5">Forum</tspan><tspan x="1.2" y="9.6" class="st3 st4 st5">2019</tspan></text>
<rect x="-542.2" y="288.8" class="st0" width="14.8" height="13.6"/>
<text transform="matrix(1 0 0 1 -540.8055 292.2129)" class="st2"><tspan x="0" y="0" class="st3 st4 st5">Japan</tspan><tspan x="0" y="4.8" class="st3 st4 st5">Forum</tspan><tspan x="1.2" y="9.6" class="st3 st4 st5">2019</tspan></text>
<rect x="-525.1" y="260.4" class="st0" width="14.4" height="12.4"/>
</svg>
